<?xml version="1.0" encoding="utf-8" standalone="no"?>
<!DOCTYPE svg PUBLIC "-//W3C//DTD SVG 1.1//EN"
  "http://www.w3.org/Graphics/SVG/1.1/DTD/svg11.dtd">
<svg xmlns:xlink="http://www.w3.org/1999/xlink" width="864pt" height="432pt" viewBox="0 0 864 432" xmlns="http://www.w3.org/2000/svg" version="1.1">
 <metadata>
  <rdf:RDF xmlns:dc="http://purl.org/dc/elements/1.1/" xmlns:cc="http://creativecommons.org/ns#" xmlns:rdf="http://www.w3.org/1999/02/22-rdf-syntax-ns#">
   <cc:Work>
    <dc:type rdf:resource="http://purl.org/dc/dcmitype/StillImage"/>
    <dc:date>2022-08-22T14:12:49.793416</dc:date>
    <dc:format>image/svg+xml</dc:format>
    <dc:creator>
     <cc:Agent>
      <dc:title>Matplotlib v3.5.0, https://matplotlib.org/</dc:title>
     </cc:Agent>
    </dc:creator>
   </cc:Work>
  </rdf:RDF>
 </metadata>
 <defs>
  <style type="text/css">*{stroke-linejoin: round; stroke-linecap: butt}</style>
 </defs>
 <g id="figure_1">
  <g id="patch_1">
   <path d="M 0 432 
L 864 432 
L 864 0 
L 0 0 
L 0 432 
z
" style="fill: none"/>
  </g>
  <g id="axes_1">
   <g id="patch_2">
    <path d="M 28.8 193.6 
L 286.608333 193.6 
L 286.608333 28.8 
L 28.8 28.8 
z
" style="fill: #ffffff"/>
   </g>
   <g id="patch_3">
    <path d="M 28.8 193.6 
L 34.529074 193.6 
L 34.529074 111.998274 
L 28.8 111.998274 
z
" clip-path="url(#p5bab51f98b)" style="fill: #d3d3d3"/>
   </g>
   <g id="patch_4">
    <path d="M 34.529074 193.6 
L 40.258148 193.6 
L 40.258148 69.896514 
L 34.529074 69.896514 
z
" clip-path="url(#p5bab51f98b)" style="fill: #d3d3d3"/>
   </g>
   <g id="patch_5">
    <path d="M 40.258148 193.6 
L 45.987222 193.6 
L 45.987222 60.671971 
L 40.258148 60.671971 
z
" clip-path="url(#p5bab51f98b)" style="fill: #d3d3d3"/>
   </g>
   <g id="patch_6">
    <path d="M 45.987222 193.6 
L 51.716296 193.6 
L 51.716296 72.025255 
L 45.987222 72.025255 
z
" clip-path="url(#p5bab51f98b)" style="fill: #d3d3d3"/>
   </g>
   <g id="patch_7">
    <path d="M 51.716296 193.6 
L 57.44537 193.6 
L 57.44537 70.133041 
L 51.716296 70.133041 
z
" clip-path="url(#p5bab51f98b)" style="fill: #d3d3d3"/>
   </g>
   <g id="patch_8">
    <path d="M 57.44537 193.6 
L 63.174444 193.6 
L 63.174444 88.109073 
L 57.44537 88.109073 
z
" clip-path="url(#p5bab51f98b)" style="fill: #d3d3d3"/>
   </g>
   <g id="patch_9">
    <path d="M 63.174444 193.6 
L 68.903519 193.6 
L 68.903519 103.719838 
L 63.174444 103.719838 
z
" clip-path="url(#p5bab51f98b)" style="fill: #d3d3d3"/>
   </g>
   <g id="patch_10">
    <path d="M 68.903519 193.6 
L 74.632593 193.6 
L 74.632593 116.965336 
L 68.903519 116.965336 
z
" clip-path="url(#p5bab51f98b)" style="fill: #d3d3d3"/>
   </g>
   <g id="patch_11">
    <path d="M 74.632593 193.6 
L 80.361667 193.6 
L 80.361667 133.522208 
L 74.632593 133.522208 
z
" clip-path="url(#p5bab51f98b)" style="fill: #d3d3d3"/>
   </g>
   <g id="patch_12">
    <path d="M 80.361667 193.6 
L 86.090741 193.6 
L 86.090741 143.692857 
L 80.361667 143.692857 
z
" clip-path="url(#p5bab51f98b)" style="fill: #d3d3d3"/>
   </g>
   <g id="patch_13">
    <path d="M 86.090741 193.6 
L 91.819815 193.6 
L 91.819815 154.573088 
L 86.090741 154.573088 
z
" clip-path="url(#p5bab51f98b)" style="fill: #d3d3d3"/>
   </g>
   <g id="patch_14">
    <path d="M 91.819815 193.6 
L 97.548889 193.6 
L 97.548889 160.722783 
L 91.819815 160.722783 
z
" clip-path="url(#p5bab51f98b)" style="fill: #d3d3d3"/>
   </g>
   <g id="patch_15">
    <path d="M 97.548889 193.6 
L 103.277963 193.6 
L 103.277963 169.947326 
L 97.548889 169.947326 
z
" clip-path="url(#p5bab51f98b)" style="fill: #d3d3d3"/>
   </g>
   <g id="patch_16">
    <path d="M 103.277963 193.6 
L 109.007037 193.6 
L 109.007037 178.225762 
L 103.277963 178.225762 
z
" clip-path="url(#p5bab51f98b)" style="fill: #d3d3d3"/>
   </g>
   <g id="patch_17">
    <path d="M 109.007037 193.6 
L 114.736111 193.6 
L 114.736111 177.752708 
L 109.007037 177.752708 
z
" clip-path="url(#p5bab51f98b)" style="fill: #d3d3d3"/>
   </g>
   <g id="patch_18">
    <path d="M 114.736111 193.6 
L 120.465185 193.6 
L 120.465185 181.064083 
L 114.736111 181.064083 
z
" clip-path="url(#p5bab51f98b)" style="fill: #d3d3d3"/>
   </g>
   <g id="patch_19">
    <path d="M 120.465185 193.6 
L 126.194259 193.6 
L 126.194259 183.902404 
L 120.465185 183.902404 
z
" clip-path="url(#p5bab51f98b)" style="fill: #d3d3d3"/>
   </g>
   <g id="patch_20">
    <path d="M 126.194259 193.6 
L 131.923333 193.6 
L 131.923333 188.396412 
L 126.194259 188.396412 
z
" clip-path="url(#p5bab51f98b)" style="fill: #d3d3d3"/>
   </g>
   <g id="patch_21">
    <path d="M 131.923333 193.6 
L 137.652407 193.6 
L 137.652407 190.052099 
L 131.923333 190.052099 
z
" clip-path="url(#p5bab51f98b)" style="fill: #d3d3d3"/>
   </g>
   <g id="patch_22">
    <path d="M 137.652407 193.6 
L 143.381481 193.6 
L 143.381481 189.105992 
L 137.652407 189.105992 
z
" clip-path="url(#p5bab51f98b)" style="fill: #d3d3d3"/>
   </g>
   <g id="patch_23">
    <path d="M 143.381481 193.6 
L 149.110556 193.6 
L 149.110556 189.815572 
L 143.381481 189.815572 
z
" clip-path="url(#p5bab51f98b)" style="fill: #d3d3d3"/>
   </g>
   <g id="patch_24">
    <path d="M 149.110556 193.6 
L 154.83963 193.6 
L 154.83963 191.234733 
L 149.110556 191.234733 
z
" clip-path="url(#p5bab51f98b)" style="fill: #d3d3d3"/>
   </g>
   <g id="patch_25">
    <path d="M 154.83963 193.6 
L 160.568704 193.6 
L 160.568704 191.707786 
L 154.83963 191.707786 
z
" clip-path="url(#p5bab51f98b)" style="fill: #d3d3d3"/>
   </g>
   <g id="patch_26">
    <path d="M 160.568704 193.6 
L 166.297778 193.6 
L 166.297778 192.653893 
L 160.568704 192.653893 
z
" clip-path="url(#p5bab51f98b)" style="fill: #d3d3d3"/>
   </g>
   <g id="patch_27">
    <path d="M 166.297778 193.6 
L 172.026852 193.6 
L 172.026852 192.89042 
L 166.297778 192.89042 
z
" clip-path="url(#p5bab51f98b)" style="fill: #d3d3d3"/>
   </g>
   <g id="patch_28">
    <path d="M 172.026852 193.6 
L 177.755926 193.6 
L 177.755926 192.653893 
L 172.026852 192.653893 
z
" clip-path="url(#p5bab51f98b)" style="fill: #d3d3d3"/>
   </g>
   <g id="patch_29">
    <path d="M 177.755926 193.6 
L 183.485 193.6 
L 183.485 193.126947 
L 177.755926 193.126947 
z
" clip-path="url(#p5bab51f98b)" style="fill: #d3d3d3"/>
   </g>
   <g id="patch_30">
    <path d="M 183.485 193.6 
L 189.214074 193.6 
L 189.214074 192.89042 
L 183.485 192.89042 
z
" clip-path="url(#p5bab51f98b)" style="fill: #d3d3d3"/>
   </g>
   <g id="patch_31">
    <path d="M 189.214074 193.6 
L 194.943148 193.6 
L 194.943148 193.6 
L 189.214074 193.6 
z
" clip-path="url(#p5bab51f98b)" style="fill: #d3d3d3"/>
   </g>
   <g id="patch_32">
    <path d="M 194.943148 193.6 
L 200.672222 193.6 
L 200.672222 193.363473 
L 194.943148 193.363473 
z
" clip-path="url(#p5bab51f98b)" style="fill: #d3d3d3"/>
   </g>
   <g id="patch_33">
    <path d="M 200.672222 193.6 
L 206.401296 193.6 
L 206.401296 193.6 
L 200.672222 193.6 
z
" clip-path="url(#p5bab51f98b)" style="fill: #d3d3d3"/>
   </g>
   <g id="patch_34">
    <path d="M 206.401296 193.6 
L 212.13037 193.6 
L 212.13037 193.6 
L 206.401296 193.6 
z
" clip-path="url(#p5bab51f98b)" style="fill: #d3d3d3"/>
   </g>
   <g id="patch_35">
    <path d="M 212.13037 193.6 
L 217.859444 193.6 
L 217.859444 193.6 
L 212.13037 193.6 
z
" clip-path="url(#p5bab51f98b)" style="fill: #d3d3d3"/>
   </g>
   <g id="patch_36">
    <path d="M 217.859444 193.6 
L 223.588519 193.6 
L 223.588519 193.6 
L 217.859444 193.6 
z
" clip-path="url(#p5bab51f98b)" style="fill: #d3d3d3"/>
   </g>
   <g id="patch_37">
    <path d="M 223.588519 193.6 
L 229.317593 193.6 
L 229.317593 193.363473 
L 223.588519 193.363473 
z
" clip-path="url(#p5bab51f98b)" style="fill: #d3d3d3"/>
   </g>
   <g id="patch_38">
    <path d="M 229.317593 193.6 
L 235.046667 193.6 
L 235.046667 193.6 
L 229.317593 193.6 
z
" clip-path="url(#p5bab51f98b)" style="fill: #d3d3d3"/>
   </g>
   <g id="patch_39">
    <path d="M 235.046667 193.6 
L 240.775741 193.6 
L 240.775741 193.6 
L 235.046667 193.6 
z
" clip-path="url(#p5bab51f98b)" style="fill: #d3d3d3"/>
   </g>
   <g id="patch_40">
    <path d="M 240.775741 193.6 
L 246.504815 193.6 
L 246.504815 193.6 
L 240.775741 193.6 
z
" clip-path="url(#p5bab51f98b)" style="fill: #d3d3d3"/>
   </g>
   <g id="patch_41">
    <path d="M 246.504815 193.6 
L 252.233889 193.6 
L 252.233889 193.6 
L 246.504815 193.6 
z
" clip-path="url(#p5bab51f98b)" style="fill: #d3d3d3"/>
   </g>
   <g id="patch_42">
    <path d="M 252.233889 193.6 
L 257.962963 193.6 
L 257.962963 193.6 
L 252.233889 193.6 
z
" clip-path="url(#p5bab51f98b)" style="fill: #d3d3d3"/>
   </g>
   <g id="patch_43">
    <path d="M 257.962963 193.6 
L 263.692037 193.6 
L 263.692037 193.6 
L 257.962963 193.6 
z
" clip-path="url(#p5bab51f98b)" style="fill: #d3d3d3"/>
   </g>
   <g id="patch_44">
    <path d="M 263.692037 193.6 
L 269.421111 193.6 
L 269.421111 193.6 
L 263.692037 193.6 
z
" clip-path="url(#p5bab51f98b)" style="fill: #d3d3d3"/>
   </g>
   <g id="patch_45">
    <path d="M 269.421111 193.6 
L 275.150185 193.6 
L 275.150185 193.6 
L 269.421111 193.6 
z
" clip-path="url(#p5bab51f98b)" style="fill: #d3d3d3"/>
   </g>
   <g id="patch_46">
    <path d="M 275.150185 193.6 
L 280.879259 193.6 
L 280.879259 193.6 
L 275.150185 193.6 
z
" clip-path="url(#p5bab51f98b)" style="fill: #d3d3d3"/>
   </g>
   <g id="patch_47">
    <path d="M 280.879259 193.6 
L 286.608333 193.6 
L 286.608333 193.363473 
L 280.879259 193.363473 
z
" clip-path="url(#p5bab51f98b)" style="fill: #d3d3d3"/>
   </g>
   <g id="matplotlib.axis_1">
    <g id="xtick_1">
     <g id="line2d_1">
      <defs>
       <path id="m3864bf4e6e" d="M 0 0 
L 0 3.5 
" style="stroke: #000000; stroke-width: 0.8"/>
      </defs>
      <g>
       <use xlink:href="#m3864bf4e6e" x="31.664537" y="193.6" style="stroke: #000000; stroke-width: 0.8"/>
      </g>
     </g>
     <g id="text_1">
      <!-- 0 -->
      <g transform="translate(28.483287 208.198438)scale(0.1 -0.1)">
       <defs>
        <path id="DejaVuSans-30" d="M 2034 4250 
Q 1547 4250 1301 3770 
Q 1056 3291 1056 2328 
Q 1056 1369 1301 889 
Q 1547 409 2034 409 
Q 2525 409 2770 889 
Q 3016 1369 3016 2328 
Q 3016 3291 2770 3770 
Q 2525 4250 2034 4250 
z
M 2034 4750 
Q 2819 4750 3233 4129 
Q 3647 3509 3647 2328 
Q 3647 1150 3233 529 
Q 2819 -91 2034 -91 
Q 1250 -91 836 529 
Q 422 1150 422 2328 
Q 422 3509 836 4129 
Q 1250 4750 2034 4750 
z
" transform="scale(0.015625)"/>
       </defs>
       <use xlink:href="#DejaVuSans-30"/>
      </g>
     </g>
    </g>
    <g id="xtick_2">
     <g id="line2d_2">
      <g>
       <use xlink:href="#m3864bf4e6e" x="88.955278" y="193.6" style="stroke: #000000; stroke-width: 0.8"/>
      </g>
     </g>
     <g id="text_2">
      <!-- 10 -->
      <g transform="translate(82.592778 208.198438)scale(0.1 -0.1)">
       <defs>
        <path id="DejaVuSans-31" d="M 794 531 
L 1825 531 
L 1825 4091 
L 703 3866 
L 703 4441 
L 1819 4666 
L 2450 4666 
L 2450 531 
L 3481 531 
L 3481 0 
L 794 0 
L 794 531 
z
" transform="scale(0.015625)"/>
       </defs>
       <use xlink:href="#DejaVuSans-31"/>
       <use xlink:href="#DejaVuSans-30" x="63.623047"/>
      </g>
     </g>
    </g>
    <g id="xtick_3">
     <g id="line2d_3">
      <g>
       <use xlink:href="#m3864bf4e6e" x="146.246019" y="193.6" style="stroke: #000000; stroke-width: 0.8"/>
      </g>
     </g>
     <g id="text_3">
      <!-- 20 -->
      <g transform="translate(139.883519 208.198438)scale(0.1 -0.1)">
       <defs>
        <path id="DejaVuSans-32" d="M 1228 531 
L 3431 531 
L 3431 0 
L 469 0 
L 469 531 
Q 828 903 1448 1529 
Q 2069 2156 2228 2338 
Q 2531 2678 2651 2914 
Q 2772 3150 2772 3378 
Q 2772 3750 2511 3984 
Q 2250 4219 1831 4219 
Q 1534 4219 1204 4116 
Q 875 4013 500 3803 
L 500 4441 
Q 881 4594 1212 4672 
Q 1544 4750 1819 4750 
Q 2544 4750 2975 4387 
Q 3406 4025 3406 3419 
Q 3406 3131 3298 2873 
Q 3191 2616 2906 2266 
Q 2828 2175 2409 1742 
Q 1991 1309 1228 531 
z
" transform="scale(0.015625)"/>
       </defs>
       <use xlink:href="#DejaVuSans-32"/>
       <use xlink:href="#DejaVuSans-30" x="63.623047"/>
      </g>
     </g>
    </g>
    <g id="xtick_4">
     <g id="line2d_4">
      <g>
       <use xlink:href="#m3864bf4e6e" x="203.536759" y="193.6" style="stroke: #000000; stroke-width: 0.8"/>
      </g>
     </g>
     <g id="text_4">
      <!-- 30 -->
      <g transform="translate(197.174259 208.198438)scale(0.1 -0.1)">
       <defs>
        <path id="DejaVuSans-33" d="M 2597 2516 
Q 3050 2419 3304 2112 
Q 3559 1806 3559 1356 
Q 3559 666 3084 287 
Q 2609 -91 1734 -91 
Q 1441 -91 1130 -33 
Q 819 25 488 141 
L 488 750 
Q 750 597 1062 519 
Q 1375 441 1716 441 
Q 2309 441 2620 675 
Q 2931 909 2931 1356 
Q 2931 1769 2642 2001 
Q 2353 2234 1838 2234 
L 1294 2234 
L 1294 2753 
L 1863 2753 
Q 2328 2753 2575 2939 
Q 2822 3125 2822 3475 
Q 2822 3834 2567 4026 
Q 2313 4219 1838 4219 
Q 1578 4219 1281 4162 
Q 984 4106 628 3988 
L 628 4550 
Q 988 4650 1302 4700 
Q 1616 4750 1894 4750 
Q 2613 4750 3031 4423 
Q 3450 4097 3450 3541 
Q 3450 3153 3228 2886 
Q 3006 2619 2597 2516 
z
" transform="scale(0.015625)"/>
       </defs>
       <use xlink:href="#DejaVuSans-33"/>
       <use xlink:href="#DejaVuSans-30" x="63.623047"/>
      </g>
     </g>
    </g>
    <g id="xtick_5">
     <g id="line2d_5">
      <g>
       <use xlink:href="#m3864bf4e6e" x="260.8275" y="193.6" style="stroke: #000000; stroke-width: 0.8"/>
      </g>
     </g>
     <g id="text_5">
      <!-- 40 -->
      <g transform="translate(254.465 208.198438)scale(0.1 -0.1)">
       <defs>
        <path id="DejaVuSans-34" d="M 2419 4116 
L 825 1625 
L 2419 1625 
L 2419 4116 
z
M 2253 4666 
L 3047 4666 
L 3047 1625 
L 3713 1625 
L 3713 1100 
L 3047 1100 
L 3047 0 
L 2419 0 
L 2419 1100 
L 313 1100 
L 313 1709 
L 2253 4666 
z
" transform="scale(0.015625)"/>
       </defs>
       <use xlink:href="#DejaVuSans-34"/>
       <use xlink:href="#DejaVuSans-30" x="63.623047"/>
      </g>
     </g>
    </g>
   </g>
   <g id="matplotlib.axis_2">
    <g id="text_6">
     <!-- Nascent -->
     <g transform="translate(21.888438 139.709688)rotate(-90)scale(0.14 -0.14)">
      <defs>
       <path id="DejaVuSans-4e" d="M 628 4666 
L 1478 4666 
L 3547 763 
L 3547 4666 
L 4159 4666 
L 4159 0 
L 3309 0 
L 1241 3903 
L 1241 0 
L 628 0 
L 628 4666 
z
" transform="scale(0.015625)"/>
       <path id="DejaVuSans-61" d="M 2194 1759 
Q 1497 1759 1228 1600 
Q 959 1441 959 1056 
Q 959 750 1161 570 
Q 1363 391 1709 391 
Q 2188 391 2477 730 
Q 2766 1069 2766 1631 
L 2766 1759 
L 2194 1759 
z
M 3341 1997 
L 3341 0 
L 2766 0 
L 2766 531 
Q 2569 213 2275 61 
Q 1981 -91 1556 -91 
Q 1019 -91 701 211 
Q 384 513 384 1019 
Q 384 1609 779 1909 
Q 1175 2209 1959 2209 
L 2766 2209 
L 2766 2266 
Q 2766 2663 2505 2880 
Q 2244 3097 1772 3097 
Q 1472 3097 1187 3025 
Q 903 2953 641 2809 
L 641 3341 
Q 956 3463 1253 3523 
Q 1550 3584 1831 3584 
Q 2591 3584 2966 3190 
Q 3341 2797 3341 1997 
z
" transform="scale(0.015625)"/>
       <path id="DejaVuSans-73" d="M 2834 3397 
L 2834 2853 
Q 2591 2978 2328 3040 
Q 2066 3103 1784 3103 
Q 1356 3103 1142 2972 
Q 928 2841 928 2578 
Q 928 2378 1081 2264 
Q 1234 2150 1697 2047 
L 1894 2003 
Q 2506 1872 2764 1633 
Q 3022 1394 3022 966 
Q 3022 478 2636 193 
Q 2250 -91 1575 -91 
Q 1294 -91 989 -36 
Q 684 19 347 128 
L 347 722 
Q 666 556 975 473 
Q 1284 391 1588 391 
Q 1994 391 2212 530 
Q 2431 669 2431 922 
Q 2431 1156 2273 1281 
Q 2116 1406 1581 1522 
L 1381 1569 
Q 847 1681 609 1914 
Q 372 2147 372 2553 
Q 372 3047 722 3315 
Q 1072 3584 1716 3584 
Q 2034 3584 2315 3537 
Q 2597 3491 2834 3397 
z
" transform="scale(0.015625)"/>
       <path id="DejaVuSans-63" d="M 3122 3366 
L 3122 2828 
Q 2878 2963 2633 3030 
Q 2388 3097 2138 3097 
Q 1578 3097 1268 2742 
Q 959 2388 959 1747 
Q 959 1106 1268 751 
Q 1578 397 2138 397 
Q 2388 397 2633 464 
Q 2878 531 3122 666 
L 3122 134 
Q 2881 22 2623 -34 
Q 2366 -91 2075 -91 
Q 1284 -91 818 406 
Q 353 903 353 1747 
Q 353 2603 823 3093 
Q 1294 3584 2113 3584 
Q 2378 3584 2631 3529 
Q 2884 3475 3122 3366 
z
" transform="scale(0.015625)"/>
       <path id="DejaVuSans-65" d="M 3597 1894 
L 3597 1613 
L 953 1613 
Q 991 1019 1311 708 
Q 1631 397 2203 397 
Q 2534 397 2845 478 
Q 3156 559 3463 722 
L 3463 178 
Q 3153 47 2828 -22 
Q 2503 -91 2169 -91 
Q 1331 -91 842 396 
Q 353 884 353 1716 
Q 353 2575 817 3079 
Q 1281 3584 2069 3584 
Q 2775 3584 3186 3129 
Q 3597 2675 3597 1894 
z
M 3022 2063 
Q 3016 2534 2758 2815 
Q 2500 3097 2075 3097 
Q 1594 3097 1305 2825 
Q 1016 2553 972 2059 
L 3022 2063 
z
" transform="scale(0.015625)"/>
       <path id="DejaVuSans-6e" d="M 3513 2113 
L 3513 0 
L 2938 0 
L 2938 2094 
Q 2938 2591 2744 2837 
Q 2550 3084 2163 3084 
Q 1697 3084 1428 2787 
Q 1159 2491 1159 1978 
L 1159 0 
L 581 0 
L 581 3500 
L 1159 3500 
L 1159 2956 
Q 1366 3272 1645 3428 
Q 1925 3584 2291 3584 
Q 2894 3584 3203 3211 
Q 3513 2838 3513 2113 
z
" transform="scale(0.015625)"/>
       <path id="DejaVuSans-74" d="M 1172 4494 
L 1172 3500 
L 2356 3500 
L 2356 3053 
L 1172 3053 
L 1172 1153 
Q 1172 725 1289 603 
Q 1406 481 1766 481 
L 2356 481 
L 2356 0 
L 1766 0 
Q 1100 0 847 248 
Q 594 497 594 1153 
L 594 3053 
L 172 3053 
L 172 3500 
L 594 3500 
L 594 4494 
L 1172 4494 
z
" transform="scale(0.015625)"/>
      </defs>
      <use xlink:href="#DejaVuSans-4e"/>
      <use xlink:href="#DejaVuSans-61" x="74.804688"/>
      <use xlink:href="#DejaVuSans-73" x="136.083984"/>
      <use xlink:href="#DejaVuSans-63" x="188.183594"/>
      <use xlink:href="#DejaVuSans-65" x="243.164062"/>
      <use xlink:href="#DejaVuSans-6e" x="304.6875"/>
      <use xlink:href="#DejaVuSans-74" x="368.066406"/>
     </g>
    </g>
   </g>
   <g id="line2d_6">
    <path d="M 31.664537 114.988264 
L 37.393611 73.095777 
L 43.122685 58.294318 
L 48.851759 60.237187 
L 54.580833 71.335187 
L 60.309907 86.58165 
L 66.038981 102.899435 
L 71.768056 118.536859 
L 77.49713 132.605594 
L 83.226204 144.753361 
L 88.955278 154.942593 
L 94.684352 163.306215 
L 100.413426 170.057074 
L 106.1425 175.433502 
L 111.871574 179.668491 
L 117.600648 182.973875 
L 123.329722 185.533679 
L 129.058796 187.502837 
L 134.78787 189.00883 
L 140.516944 190.154717 
L 146.246019 191.022661 
L 151.975093 191.677424 
L 157.704167 192.169573 
L 163.433241 192.538282 
L 169.162315 192.813689 
L 174.891389 193.018844 
L 180.620463 193.171286 
L 186.349537 193.2843 
L 192.078611 193.367904 
L 197.807685 193.429632 
L 203.536759 193.475124 
L 209.265833 193.508593 
L 214.994907 193.533178 
L 220.723981 193.551209 
L 226.453056 193.564416 
L 232.18213 193.574076 
L 237.911204 193.581133 
L 243.640278 193.586283 
L 249.369352 193.590036 
L 255.098426 193.592769 
L 260.8275 193.594756 
L 266.556574 193.596201 
L 272.285648 193.597249 
L 278.014722 193.59801 
L 283.743796 193.598562 
L 289.47287 193.598961 
L 295.201944 193.59925 
L 300.931019 193.599459 
L 306.660093 193.59961 
L 312.389167 193.599719 
L 318.118241 193.599797 
L 323.847315 193.599854 
L 329.576389 193.599895 
L 335.305463 193.599925 
" clip-path="url(#p5bab51f98b)" style="fill: none; stroke: #ff0000; stroke-width: 1.5; stroke-linecap: square"/>
   </g>
   <g id="line2d_7">
    <path d="M 31.664537 141.644317 
L 37.393611 76.378537 
L 43.122685 39.687473 
L 48.851759 36.647619 
L 54.580833 54.00722 
L 60.309907 78.598176 
L 66.038981 102.756869 
L 71.768056 123.36758 
L 77.49713 139.799814 
L 83.226204 152.462643 
L 88.955278 162.069486 
L 94.684352 169.315497 
L 100.413426 174.783929 
L 106.1425 178.923952 
L 111.871574 182.077428 
L 117.600648 184.492281 
L 123.329722 186.357004 
L 129.058796 187.80375 
L 134.78787 188.936695 
L 140.516944 189.827233 
L 146.246019 190.533274 
L 151.975093 191.095567 
L 157.704167 191.545533 
L 163.433241 191.90896 
L 169.162315 192.20132 
L 174.891389 192.441152 
L 180.620463 192.63443 
L 186.349537 192.795447 
L 192.078611 192.925408 
L 197.807685 193.03492 
L 203.536759 193.123817 
L 209.265833 193.199025 
L 214.994907 193.260805 
L 220.723981 193.312922 
L 226.453056 193.356385 
L 232.18213 193.392898 
L 237.911204 193.423687 
L 243.640278 193.449627 
L 249.369352 193.471493 
L 255.098426 193.490198 
L 260.8275 193.505746 
L 266.556574 193.519403 
L 272.285648 193.530497 
L 278.014722 193.540543 
L 283.743796 193.548513 
L 289.47287 193.555931 
L 295.201944 193.561703 
L 300.931019 193.5672 
L 306.660093 193.571404 
L 312.389167 193.575499 
L 318.118241 193.578569 
L 323.847315 193.58164 
L 329.576389 193.583885 
L 335.305463 193.5862 
" clip-path="url(#p5bab51f98b)" style="fill: none; stroke: #00aeef; stroke-width: 1.5; stroke-linecap: square"/>
   </g>
   <g id="patch_48">
    <path d="M 28.8 193.6 
L 28.8 28.8 
" style="fill: none; stroke: #000000; stroke-width: 0.8; stroke-linejoin: miter; stroke-linecap: square"/>
   </g>
   <g id="patch_49">
    <path d="M 286.608333 193.6 
L 286.608333 28.8 
" style="fill: none; stroke: #000000; stroke-width: 0.8; stroke-linejoin: miter; stroke-linecap: square"/>
   </g>
   <g id="patch_50">
    <path d="M 28.8 193.6 
L 286.608333 193.6 
" style="fill: none; stroke: #000000; stroke-width: 0.8; stroke-linejoin: miter; stroke-linecap: square"/>
   </g>
   <g id="patch_51">
    <path d="M 28.8 28.8 
L 286.608333 28.8 
" style="fill: none; stroke: #000000; stroke-width: 0.8; stroke-linejoin: miter; stroke-linecap: square"/>
   </g>
   <g id="text_7">
    <!-- Gabra4 -->
    <g style="fill: #ff0000" transform="translate(128.242917 22.8)scale(0.16 -0.16)">
     <defs>
      <path id="DejaVuSans-47" d="M 3809 666 
L 3809 1919 
L 2778 1919 
L 2778 2438 
L 4434 2438 
L 4434 434 
Q 4069 175 3628 42 
Q 3188 -91 2688 -91 
Q 1594 -91 976 548 
Q 359 1188 359 2328 
Q 359 3472 976 4111 
Q 1594 4750 2688 4750 
Q 3144 4750 3555 4637 
Q 3966 4525 4313 4306 
L 4313 3634 
Q 3963 3931 3569 4081 
Q 3175 4231 2741 4231 
Q 1884 4231 1454 3753 
Q 1025 3275 1025 2328 
Q 1025 1384 1454 906 
Q 1884 428 2741 428 
Q 3075 428 3337 486 
Q 3600 544 3809 666 
z
" transform="scale(0.015625)"/>
      <path id="DejaVuSans-62" d="M 3116 1747 
Q 3116 2381 2855 2742 
Q 2594 3103 2138 3103 
Q 1681 3103 1420 2742 
Q 1159 2381 1159 1747 
Q 1159 1113 1420 752 
Q 1681 391 2138 391 
Q 2594 391 2855 752 
Q 3116 1113 3116 1747 
z
M 1159 2969 
Q 1341 3281 1617 3432 
Q 1894 3584 2278 3584 
Q 2916 3584 3314 3078 
Q 3713 2572 3713 1747 
Q 3713 922 3314 415 
Q 2916 -91 2278 -91 
Q 1894 -91 1617 61 
Q 1341 213 1159 525 
L 1159 0 
L 581 0 
L 581 4863 
L 1159 4863 
L 1159 2969 
z
" transform="scale(0.015625)"/>
      <path id="DejaVuSans-72" d="M 2631 2963 
Q 2534 3019 2420 3045 
Q 2306 3072 2169 3072 
Q 1681 3072 1420 2755 
Q 1159 2438 1159 1844 
L 1159 0 
L 581 0 
L 581 3500 
L 1159 3500 
L 1159 2956 
Q 1341 3275 1631 3429 
Q 1922 3584 2338 3584 
Q 2397 3584 2469 3576 
Q 2541 3569 2628 3553 
L 2631 2963 
z
" transform="scale(0.015625)"/>
     </defs>
     <use xlink:href="#DejaVuSans-47"/>
     <use xlink:href="#DejaVuSans-61" x="77.490234"/>
     <use xlink:href="#DejaVuSans-62" x="138.769531"/>
     <use xlink:href="#DejaVuSans-72" x="202.246094"/>
     <use xlink:href="#DejaVuSans-61" x="243.359375"/>
     <use xlink:href="#DejaVuSans-34" x="304.638672"/>
    </g>
   </g>
  </g>
  <g id="axes_2">
   <g id="patch_52">
    <path d="M 312.095833 193.6 
L 569.904167 193.6 
L 569.904167 28.8 
L 312.095833 28.8 
z
" style="fill: #ffffff"/>
   </g>
   <g id="patch_53">
    <path d="M 312.095833 193.6 
L 331.927244 193.6 
L 331.927244 36.647619 
L 312.095833 36.647619 
z
" clip-path="url(#p6707ad6268)" style="fill: #d3d3d3"/>
   </g>
   <g id="patch_54">
    <path d="M 331.927244 193.6 
L 351.758654 193.6 
L 351.758654 128.123622 
L 331.927244 128.123622 
z
" clip-path="url(#p6707ad6268)" style="fill: #d3d3d3"/>
   </g>
   <g id="patch_55">
    <path d="M 351.758654 193.6 
L 371.590064 193.6 
L 371.590064 167.54422 
L 351.758654 167.54422 
z
" clip-path="url(#p6707ad6268)" style="fill: #d3d3d3"/>
   </g>
   <g id="patch_56">
    <path d="M 371.590064 193.6 
L 391.421474 193.6 
L 391.421474 180.347491 
L 371.590064 180.347491 
z
" clip-path="url(#p6707ad6268)" style="fill: #d3d3d3"/>
   </g>
   <g id="patch_57">
    <path d="M 391.421474 193.6 
L 411.252885 193.6 
L 411.252885 188.714541 
L 391.421474 188.714541 
z
" clip-path="url(#p6707ad6268)" style="fill: #d3d3d3"/>
   </g>
   <g id="patch_58">
    <path d="M 411.252885 193.6 
L 431.084295 193.6 
L 431.084295 191.353812 
L 411.252885 191.353812 
z
" clip-path="url(#p6707ad6268)" style="fill: #d3d3d3"/>
   </g>
   <g id="patch_59">
    <path d="M 431.084295 193.6 
L 450.915705 193.6 
L 450.915705 192.75768 
L 431.084295 192.75768 
z
" clip-path="url(#p6707ad6268)" style="fill: #d3d3d3"/>
   </g>
   <g id="patch_60">
    <path d="M 450.915705 193.6 
L 470.747115 193.6 
L 470.747115 192.982298 
L 450.915705 192.982298 
z
" clip-path="url(#p6707ad6268)" style="fill: #d3d3d3"/>
   </g>
   <g id="patch_61">
    <path d="M 470.747115 193.6 
L 490.578526 193.6 
L 490.578526 193.319227 
L 470.747115 193.319227 
z
" clip-path="url(#p6707ad6268)" style="fill: #d3d3d3"/>
   </g>
   <g id="patch_62">
    <path d="M 490.578526 193.6 
L 510.409936 193.6 
L 510.409936 193.6 
L 490.578526 193.6 
z
" clip-path="url(#p6707ad6268)" style="fill: #d3d3d3"/>
   </g>
   <g id="patch_63">
    <path d="M 510.409936 193.6 
L 530.241346 193.6 
L 530.241346 193.6 
L 510.409936 193.6 
z
" clip-path="url(#p6707ad6268)" style="fill: #d3d3d3"/>
   </g>
   <g id="patch_64">
    <path d="M 530.241346 193.6 
L 550.072756 193.6 
L 550.072756 193.6 
L 530.241346 193.6 
z
" clip-path="url(#p6707ad6268)" style="fill: #d3d3d3"/>
   </g>
   <g id="patch_65">
    <path d="M 550.072756 193.6 
L 569.904167 193.6 
L 569.904167 193.543845 
L 550.072756 193.543845 
z
" clip-path="url(#p6707ad6268)" style="fill: #d3d3d3"/>
   </g>
   <g id="matplotlib.axis_3">
    <g id="xtick_6">
     <g id="line2d_8">
      <g>
       <use xlink:href="#m3864bf4e6e" x="322.011538" y="193.6" style="stroke: #000000; stroke-width: 0.8"/>
      </g>
     </g>
     <g id="text_8">
      <!-- 0 -->
      <g transform="translate(318.830288 208.198438)scale(0.1 -0.1)">
       <use xlink:href="#DejaVuSans-30"/>
      </g>
     </g>
    </g>
    <g id="xtick_7">
     <g id="line2d_9">
      <g>
       <use xlink:href="#m3864bf4e6e" x="361.674359" y="193.6" style="stroke: #000000; stroke-width: 0.8"/>
      </g>
     </g>
     <g id="text_9">
      <!-- 2 -->
      <g transform="translate(358.493109 208.198438)scale(0.1 -0.1)">
       <use xlink:href="#DejaVuSans-32"/>
      </g>
     </g>
    </g>
    <g id="xtick_8">
     <g id="line2d_10">
      <g>
       <use xlink:href="#m3864bf4e6e" x="401.337179" y="193.6" style="stroke: #000000; stroke-width: 0.8"/>
      </g>
     </g>
     <g id="text_10">
      <!-- 4 -->
      <g transform="translate(398.155929 208.198438)scale(0.1 -0.1)">
       <use xlink:href="#DejaVuSans-34"/>
      </g>
     </g>
    </g>
    <g id="xtick_9">
     <g id="line2d_11">
      <g>
       <use xlink:href="#m3864bf4e6e" x="441" y="193.6" style="stroke: #000000; stroke-width: 0.8"/>
      </g>
     </g>
     <g id="text_11">
      <!-- 6 -->
      <g transform="translate(437.81875 208.198438)scale(0.1 -0.1)">
       <defs>
        <path id="DejaVuSans-36" d="M 2113 2584 
Q 1688 2584 1439 2293 
Q 1191 2003 1191 1497 
Q 1191 994 1439 701 
Q 1688 409 2113 409 
Q 2538 409 2786 701 
Q 3034 994 3034 1497 
Q 3034 2003 2786 2293 
Q 2538 2584 2113 2584 
z
M 3366 4563 
L 3366 3988 
Q 3128 4100 2886 4159 
Q 2644 4219 2406 4219 
Q 1781 4219 1451 3797 
Q 1122 3375 1075 2522 
Q 1259 2794 1537 2939 
Q 1816 3084 2150 3084 
Q 2853 3084 3261 2657 
Q 3669 2231 3669 1497 
Q 3669 778 3244 343 
Q 2819 -91 2113 -91 
Q 1303 -91 875 529 
Q 447 1150 447 2328 
Q 447 3434 972 4092 
Q 1497 4750 2381 4750 
Q 2619 4750 2861 4703 
Q 3103 4656 3366 4563 
z
" transform="scale(0.015625)"/>
       </defs>
       <use xlink:href="#DejaVuSans-36"/>
      </g>
     </g>
    </g>
    <g id="xtick_10">
     <g id="line2d_12">
      <g>
       <use xlink:href="#m3864bf4e6e" x="480.662821" y="193.6" style="stroke: #000000; stroke-width: 0.8"/>
      </g>
     </g>
     <g id="text_12">
      <!-- 8 -->
      <g transform="translate(477.481571 208.198438)scale(0.1 -0.1)">
       <defs>
        <path id="DejaVuSans-38" d="M 2034 2216 
Q 1584 2216 1326 1975 
Q 1069 1734 1069 1313 
Q 1069 891 1326 650 
Q 1584 409 2034 409 
Q 2484 409 2743 651 
Q 3003 894 3003 1313 
Q 3003 1734 2745 1975 
Q 2488 2216 2034 2216 
z
M 1403 2484 
Q 997 2584 770 2862 
Q 544 3141 544 3541 
Q 544 4100 942 4425 
Q 1341 4750 2034 4750 
Q 2731 4750 3128 4425 
Q 3525 4100 3525 3541 
Q 3525 3141 3298 2862 
Q 3072 2584 2669 2484 
Q 3125 2378 3379 2068 
Q 3634 1759 3634 1313 
Q 3634 634 3220 271 
Q 2806 -91 2034 -91 
Q 1263 -91 848 271 
Q 434 634 434 1313 
Q 434 1759 690 2068 
Q 947 2378 1403 2484 
z
M 1172 3481 
Q 1172 3119 1398 2916 
Q 1625 2713 2034 2713 
Q 2441 2713 2670 2916 
Q 2900 3119 2900 3481 
Q 2900 3844 2670 4047 
Q 2441 4250 2034 4250 
Q 1625 4250 1398 4047 
Q 1172 3844 1172 3481 
z
" transform="scale(0.015625)"/>
       </defs>
       <use xlink:href="#DejaVuSans-38"/>
      </g>
     </g>
    </g>
    <g id="xtick_11">
     <g id="line2d_13">
      <g>
       <use xlink:href="#m3864bf4e6e" x="520.325641" y="193.6" style="stroke: #000000; stroke-width: 0.8"/>
      </g>
     </g>
     <g id="text_13">
      <!-- 10 -->
      <g transform="translate(513.963141 208.198438)scale(0.1 -0.1)">
       <use xlink:href="#DejaVuSans-31"/>
       <use xlink:href="#DejaVuSans-30" x="63.623047"/>
      </g>
     </g>
    </g>
    <g id="xtick_12">
     <g id="line2d_14">
      <g>
       <use xlink:href="#m3864bf4e6e" x="559.988462" y="193.6" style="stroke: #000000; stroke-width: 0.8"/>
      </g>
     </g>
     <g id="text_14">
      <!-- 12 -->
      <g transform="translate(553.625962 208.198438)scale(0.1 -0.1)">
       <use xlink:href="#DejaVuSans-31"/>
       <use xlink:href="#DejaVuSans-32" x="63.623047"/>
      </g>
     </g>
    </g>
   </g>
   <g id="matplotlib.axis_4"/>
   <g id="line2d_15">
    <path d="M 322.011538 37.705034 
L 341.842949 128.346331 
L 361.674359 165.171795 
L 381.505769 181.373576 
L 401.337179 188.419487 
L 421.16859 191.433053 
L 441 192.703315 
L 460.83141 193.232299 
L 480.662821 193.450375 
L 500.494231 193.539518 
L 520.325641 193.575692 
L 540.157051 193.59028 
L 559.988462 193.596131 
L 579.819872 193.598466 
L 599.651282 193.599394 
L 619.482692 193.599761 
L 639.314103 193.599906 
L 659.145513 193.599963 
L 678.976923 193.599986 
L 698.808333 193.599994 
L 718.639744 193.599998 
L 738.471154 193.599999 
" clip-path="url(#p6707ad6268)" style="fill: none; stroke: #ff0000; stroke-width: 1.5; stroke-linecap: square"/>
   </g>
   <g id="line2d_16">
    <path d="M 322.011538 38.452324 
L 341.842949 125.959327 
L 361.674359 166.12905 
L 381.505769 182.026919 
L 401.337179 188.628542 
L 421.16859 191.438044 
L 441 192.651901 
L 460.83141 193.181928 
L 480.662821 193.41486 
L 500.494231 193.517735 
L 520.325641 193.563349 
L 540.157051 193.583636 
L 559.988462 193.592681 
L 579.819872 193.596722 
L 599.651282 193.59853 
L 619.482692 193.59934 
L 639.314103 193.599704 
L 659.145513 193.599867 
L 678.976923 193.59994 
L 698.808333 193.599973 
L 718.639744 193.599988 
L 738.471154 193.599995 
" clip-path="url(#p6707ad6268)" style="fill: none; stroke: #00aeef; stroke-width: 1.5; stroke-linecap: square"/>
   </g>
   <g id="patch_66">
    <path d="M 312.095833 193.6 
L 312.095833 28.8 
" style="fill: none; stroke: #000000; stroke-width: 0.8; stroke-linejoin: miter; stroke-linecap: square"/>
   </g>
   <g id="patch_67">
    <path d="M 569.904167 193.6 
L 569.904167 28.8 
" style="fill: none; stroke: #000000; stroke-width: 0.8; stroke-linejoin: miter; stroke-linecap: square"/>
   </g>
   <g id="patch_68">
    <path d="M 312.095833 193.6 
L 569.904167 193.6 
" style="fill: none; stroke: #000000; stroke-width: 0.8; stroke-linejoin: miter; stroke-linecap: square"/>
   </g>
   <g id="patch_69">
    <path d="M 312.095833 28.8 
L 569.904167 28.8 
" style="fill: none; stroke: #000000; stroke-width: 0.8; stroke-linejoin: miter; stroke-linecap: square"/>
   </g>
   <g id="text_15">
    <!-- Tmem65 -->
    <g style="fill: #00aeef" transform="translate(405.42625 22.8)scale(0.16 -0.16)">
     <defs>
      <path id="DejaVuSans-54" d="M -19 4666 
L 3928 4666 
L 3928 4134 
L 2272 4134 
L 2272 0 
L 1638 0 
L 1638 4134 
L -19 4134 
L -19 4666 
z
" transform="scale(0.015625)"/>
      <path id="DejaVuSans-6d" d="M 3328 2828 
Q 3544 3216 3844 3400 
Q 4144 3584 4550 3584 
Q 5097 3584 5394 3201 
Q 5691 2819 5691 2113 
L 5691 0 
L 5113 0 
L 5113 2094 
Q 5113 2597 4934 2840 
Q 4756 3084 4391 3084 
Q 3944 3084 3684 2787 
Q 3425 2491 3425 1978 
L 3425 0 
L 2847 0 
L 2847 2094 
Q 2847 2600 2669 2842 
Q 2491 3084 2119 3084 
Q 1678 3084 1418 2786 
Q 1159 2488 1159 1978 
L 1159 0 
L 581 0 
L 581 3500 
L 1159 3500 
L 1159 2956 
Q 1356 3278 1631 3431 
Q 1906 3584 2284 3584 
Q 2666 3584 2933 3390 
Q 3200 3197 3328 2828 
z
" transform="scale(0.015625)"/>
      <path id="DejaVuSans-35" d="M 691 4666 
L 3169 4666 
L 3169 4134 
L 1269 4134 
L 1269 2991 
Q 1406 3038 1543 3061 
Q 1681 3084 1819 3084 
Q 2600 3084 3056 2656 
Q 3513 2228 3513 1497 
Q 3513 744 3044 326 
Q 2575 -91 1722 -91 
Q 1428 -91 1123 -41 
Q 819 9 494 109 
L 494 744 
Q 775 591 1075 516 
Q 1375 441 1709 441 
Q 2250 441 2565 725 
Q 2881 1009 2881 1497 
Q 2881 1984 2565 2268 
Q 2250 2553 1709 2553 
Q 1456 2553 1204 2497 
Q 953 2441 691 2322 
L 691 4666 
z
" transform="scale(0.015625)"/>
     </defs>
     <use xlink:href="#DejaVuSans-54"/>
     <use xlink:href="#DejaVuSans-6d" x="61.083984"/>
     <use xlink:href="#DejaVuSans-65" x="158.496094"/>
     <use xlink:href="#DejaVuSans-6d" x="220.019531"/>
     <use xlink:href="#DejaVuSans-36" x="317.431641"/>
     <use xlink:href="#DejaVuSans-35" x="381.054688"/>
    </g>
   </g>
  </g>
  <g id="axes_3">
   <g id="patch_70">
    <path d="M 595.391667 193.6 
L 853.2 193.6 
L 853.2 28.8 
L 595.391667 28.8 
z
" style="fill: #ffffff"/>
   </g>
   <g id="patch_71">
    <path d="M 595.391667 193.6 
L 627.617708 193.6 
L 627.617708 37.063671 
L 595.391667 37.063671 
z
" clip-path="url(#pae6c883423)" style="fill: #d3d3d3"/>
   </g>
   <g id="patch_72">
    <path d="M 627.617708 193.6 
L 659.84375 193.6 
L 659.84375 38.061353 
L 627.617708 38.061353 
z
" clip-path="url(#pae6c883423)" style="fill: #d3d3d3"/>
   </g>
   <g id="patch_73">
    <path d="M 659.84375 193.6 
L 692.069792 193.6 
L 692.069792 99.219269 
L 659.84375 99.219269 
z
" clip-path="url(#pae6c883423)" style="fill: #d3d3d3"/>
   </g>
   <g id="patch_74">
    <path d="M 692.069792 193.6 
L 724.295833 193.6 
L 724.295833 150.00129 
L 692.069792 150.00129 
z
" clip-path="url(#pae6c883423)" style="fill: #d3d3d3"/>
   </g>
   <g id="patch_75">
    <path d="M 724.295833 193.6 
L 756.521875 193.6 
L 756.521875 175.043112 
L 724.295833 175.043112 
z
" clip-path="url(#pae6c883423)" style="fill: #d3d3d3"/>
   </g>
   <g id="patch_76">
    <path d="M 756.521875 193.6 
L 788.747917 193.6 
L 788.747917 185.319238 
L 756.521875 185.319238 
z
" clip-path="url(#pae6c883423)" style="fill: #d3d3d3"/>
   </g>
   <g id="patch_77">
    <path d="M 788.747917 193.6 
L 820.973958 193.6 
L 820.973958 190.507185 
L 788.747917 190.507185 
z
" clip-path="url(#pae6c883423)" style="fill: #d3d3d3"/>
   </g>
   <g id="patch_78">
    <path d="M 820.973958 193.6 
L 853.2 193.6 
L 853.2 192.702086 
L 820.973958 192.702086 
z
" clip-path="url(#pae6c883423)" style="fill: #d3d3d3"/>
   </g>
   <g id="matplotlib.axis_5">
    <g id="xtick_13">
     <g id="line2d_17">
      <g>
       <use xlink:href="#m3864bf4e6e" x="611.504687" y="193.6" style="stroke: #000000; stroke-width: 0.8"/>
      </g>
     </g>
     <g id="text_16">
      <!-- 0 -->
      <g transform="translate(608.323437 208.198438)scale(0.1 -0.1)">
       <use xlink:href="#DejaVuSans-30"/>
      </g>
     </g>
    </g>
    <g id="xtick_14">
     <g id="line2d_18">
      <g>
       <use xlink:href="#m3864bf4e6e" x="643.730729" y="193.6" style="stroke: #000000; stroke-width: 0.8"/>
      </g>
     </g>
     <g id="text_17">
      <!-- 1 -->
      <g transform="translate(640.549479 208.198438)scale(0.1 -0.1)">
       <use xlink:href="#DejaVuSans-31"/>
      </g>
     </g>
    </g>
    <g id="xtick_15">
     <g id="line2d_19">
      <g>
       <use xlink:href="#m3864bf4e6e" x="675.956771" y="193.6" style="stroke: #000000; stroke-width: 0.8"/>
      </g>
     </g>
     <g id="text_18">
      <!-- 2 -->
      <g transform="translate(672.775521 208.198438)scale(0.1 -0.1)">
       <use xlink:href="#DejaVuSans-32"/>
      </g>
     </g>
    </g>
    <g id="xtick_16">
     <g id="line2d_20">
      <g>
       <use xlink:href="#m3864bf4e6e" x="708.182812" y="193.6" style="stroke: #000000; stroke-width: 0.8"/>
      </g>
     </g>
     <g id="text_19">
      <!-- 3 -->
      <g transform="translate(705.001562 208.198438)scale(0.1 -0.1)">
       <use xlink:href="#DejaVuSans-33"/>
      </g>
     </g>
    </g>
    <g id="xtick_17">
     <g id="line2d_21">
      <g>
       <use xlink:href="#m3864bf4e6e" x="740.408854" y="193.6" style="stroke: #000000; stroke-width: 0.8"/>
      </g>
     </g>
     <g id="text_20">
      <!-- 4 -->
      <g transform="translate(737.227604 208.198438)scale(0.1 -0.1)">
       <use xlink:href="#DejaVuSans-34"/>
      </g>
     </g>
    </g>
    <g id="xtick_18">
     <g id="line2d_22">
      <g>
       <use xlink:href="#m3864bf4e6e" x="772.634896" y="193.6" style="stroke: #000000; stroke-width: 0.8"/>
      </g>
     </g>
     <g id="text_21">
      <!-- 5 -->
      <g transform="translate(769.453646 208.198438)scale(0.1 -0.1)">
       <use xlink:href="#DejaVuSans-35"/>
      </g>
     </g>
    </g>
    <g id="xtick_19">
     <g id="line2d_23">
      <g>
       <use xlink:href="#m3864bf4e6e" x="804.860937" y="193.6" style="stroke: #000000; stroke-width: 0.8"/>
      </g>
     </g>
     <g id="text_22">
      <!-- 6 -->
      <g transform="translate(801.679687 208.198438)scale(0.1 -0.1)">
       <use xlink:href="#DejaVuSans-36"/>
      </g>
     </g>
    </g>
    <g id="xtick_20">
     <g id="line2d_24">
      <g>
       <use xlink:href="#m3864bf4e6e" x="837.086979" y="193.6" style="stroke: #000000; stroke-width: 0.8"/>
      </g>
     </g>
     <g id="text_23">
      <!-- 7 -->
      <g transform="translate(833.905729 208.198438)scale(0.1 -0.1)">
       <defs>
        <path id="DejaVuSans-37" d="M 525 4666 
L 3525 4666 
L 3525 4397 
L 1831 0 
L 1172 0 
L 2766 4134 
L 525 4134 
L 525 4666 
z
" transform="scale(0.015625)"/>
       </defs>
       <use xlink:href="#DejaVuSans-37"/>
      </g>
     </g>
    </g>
   </g>
   <g id="matplotlib.axis_6"/>
   <g id="line2d_25">
    <path d="M 611.504687 36.647619 
L 643.730729 39.02412 
L 675.956771 99.62622 
L 708.182812 148.294386 
L 740.408854 174.613992 
L 772.634896 186.363429 
L 804.860937 191.025116 
L 837.086979 192.730539 
L 865 193.239613 
" clip-path="url(#pae6c883423)" style="fill: none; stroke: #ff0000; stroke-width: 1.5; stroke-linecap: square"/>
   </g>
   <g id="line2d_26">
    <path d="M 611.504687 36.680366 
L 643.730729 38.830042 
L 675.956771 99.773883 
L 708.182812 148.348087 
L 740.408854 174.615791 
L 772.634896 186.350129 
L 804.860937 191.01228 
L 837.086979 192.722347 
L 865 193.234824 
" clip-path="url(#pae6c883423)" style="fill: none; stroke: #00aeef; stroke-width: 1.5; stroke-linecap: square"/>
   </g>
   <g id="patch_79">
    <path d="M 595.391667 193.6 
L 595.391667 28.8 
" style="fill: none; stroke: #000000; stroke-width: 0.8; stroke-linejoin: miter; stroke-linecap: square"/>
   </g>
   <g id="patch_80">
    <path d="M 853.2 193.6 
L 853.2 28.8 
" style="fill: none; stroke: #000000; stroke-width: 0.8; stroke-linejoin: miter; stroke-linecap: square"/>
   </g>
   <g id="patch_81">
    <path d="M 595.391667 193.6 
L 853.2 193.6 
" style="fill: none; stroke: #000000; stroke-width: 0.8; stroke-linejoin: miter; stroke-linecap: square"/>
   </g>
   <g id="patch_82">
    <path d="M 595.391667 28.8 
L 853.2 28.8 
" style="fill: none; stroke: #000000; stroke-width: 0.8; stroke-linejoin: miter; stroke-linecap: square"/>
   </g>
   <g id="text_24">
    <!-- Bace1 -->
    <g style="fill: #6a5acd" transform="translate(699.493333 22.8)scale(0.16 -0.16)">
     <defs>
      <path id="DejaVuSans-42" d="M 1259 2228 
L 1259 519 
L 2272 519 
Q 2781 519 3026 730 
Q 3272 941 3272 1375 
Q 3272 1813 3026 2020 
Q 2781 2228 2272 2228 
L 1259 2228 
z
M 1259 4147 
L 1259 2741 
L 2194 2741 
Q 2656 2741 2882 2914 
Q 3109 3088 3109 3444 
Q 3109 3797 2882 3972 
Q 2656 4147 2194 4147 
L 1259 4147 
z
M 628 4666 
L 2241 4666 
Q 2963 4666 3353 4366 
Q 3744 4066 3744 3513 
Q 3744 3084 3544 2831 
Q 3344 2578 2956 2516 
Q 3422 2416 3680 2098 
Q 3938 1781 3938 1306 
Q 3938 681 3513 340 
Q 3088 0 2303 0 
L 628 0 
L 628 4666 
z
" transform="scale(0.015625)"/>
     </defs>
     <use xlink:href="#DejaVuSans-42"/>
     <use xlink:href="#DejaVuSans-61" x="68.603516"/>
     <use xlink:href="#DejaVuSans-63" x="129.882812"/>
     <use xlink:href="#DejaVuSans-65" x="184.863281"/>
     <use xlink:href="#DejaVuSans-31" x="246.386719"/>
    </g>
   </g>
  </g>
  <g id="axes_4">
   <g id="patch_83">
    <path d="M 28.8 386.2 
L 286.608333 386.2 
L 286.608333 221.4 
L 28.8 221.4 
z
" style="fill: #ffffff"/>
   </g>
   <g id="patch_84">
    <path d="M 28.8 386.2 
L 39.542014 386.2 
L 39.542014 333.721905 
L 28.8 333.721905 
z
" clip-path="url(#pb237642f69)" style="fill: #d3d3d3"/>
   </g>
   <g id="patch_85">
    <path d="M 39.542014 386.2 
L 50.284028 386.2 
L 50.284028 281.458007 
L 39.542014 281.458007 
z
" clip-path="url(#pb237642f69)" style="fill: #d3d3d3"/>
   </g>
   <g id="patch_86">
    <path d="M 50.284028 386.2 
L 61.026042 386.2 
L 61.026042 237.333568 
L 50.284028 237.333568 
z
" clip-path="url(#pb237642f69)" style="fill: #d3d3d3"/>
   </g>
   <g id="patch_87">
    <path d="M 61.026042 386.2 
L 71.768056 386.2 
L 71.768056 237.547764 
L 61.026042 237.547764 
z
" clip-path="url(#pb237642f69)" style="fill: #d3d3d3"/>
   </g>
   <g id="patch_88">
    <path d="M 71.768056 386.2 
L 82.510069 386.2 
L 82.510069 245.687224 
L 71.768056 245.687224 
z
" clip-path="url(#pb237642f69)" style="fill: #d3d3d3"/>
   </g>
   <g id="patch_89">
    <path d="M 82.510069 386.2 
L 93.252083 386.2 
L 93.252083 275.674707 
L 82.510069 275.674707 
z
" clip-path="url(#pb237642f69)" style="fill: #d3d3d3"/>
   </g>
   <g id="patch_90">
    <path d="M 93.252083 386.2 
L 103.994097 386.2 
L 103.994097 291.739429 
L 93.252083 291.739429 
z
" clip-path="url(#pb237642f69)" style="fill: #d3d3d3"/>
   </g>
   <g id="patch_91">
    <path d="M 103.994097 386.2 
L 114.736111 386.2 
L 114.736111 322.797894 
L 103.994097 322.797894 
z
" clip-path="url(#pb237642f69)" style="fill: #d3d3d3"/>
   </g>
   <g id="patch_92">
    <path d="M 114.736111 386.2 
L 125.478125 386.2 
L 125.478125 335.221279 
L 114.736111 335.221279 
z
" clip-path="url(#pb237642f69)" style="fill: #d3d3d3"/>
   </g>
   <g id="patch_93">
    <path d="M 125.478125 386.2 
L 136.220139 386.2 
L 136.220139 344.431721 
L 125.478125 344.431721 
z
" clip-path="url(#pb237642f69)" style="fill: #d3d3d3"/>
   </g>
   <g id="patch_94">
    <path d="M 136.220139 386.2 
L 146.962153 386.2 
L 146.962153 358.35448 
L 136.220139 358.35448 
z
" clip-path="url(#pb237642f69)" style="fill: #d3d3d3"/>
   </g>
   <g id="patch_95">
    <path d="M 146.962153 386.2 
L 157.704167 386.2 
L 157.704167 370.777866 
L 146.962153 370.777866 
z
" clip-path="url(#pb237642f69)" style="fill: #d3d3d3"/>
   </g>
   <g id="patch_96">
    <path d="M 157.704167 386.2 
L 168.446181 386.2 
L 168.446181 374.6334 
L 157.704167 374.6334 
z
" clip-path="url(#pb237642f69)" style="fill: #d3d3d3"/>
   </g>
   <g id="patch_97">
    <path d="M 168.446181 386.2 
L 179.188194 386.2 
L 179.188194 379.559915 
L 168.446181 379.559915 
z
" clip-path="url(#pb237642f69)" style="fill: #d3d3d3"/>
   </g>
   <g id="patch_98">
    <path d="M 179.188194 386.2 
L 189.930208 386.2 
L 189.930208 380.202503 
L 179.188194 380.202503 
z
" clip-path="url(#pb237642f69)" style="fill: #d3d3d3"/>
   </g>
   <g id="patch_99">
    <path d="M 189.930208 386.2 
L 200.672222 386.2 
L 200.672222 383.415448 
L 189.930208 383.415448 
z
" clip-path="url(#pb237642f69)" style="fill: #d3d3d3"/>
   </g>
   <g id="patch_100">
    <path d="M 200.672222 386.2 
L 211.414236 386.2 
L 211.414236 384.700626 
L 200.672222 384.700626 
z
" clip-path="url(#pb237642f69)" style="fill: #d3d3d3"/>
   </g>
   <g id="patch_101">
    <path d="M 211.414236 386.2 
L 222.15625 386.2 
L 222.15625 384.48643 
L 211.414236 384.48643 
z
" clip-path="url(#pb237642f69)" style="fill: #d3d3d3"/>
   </g>
   <g id="patch_102">
    <path d="M 222.15625 386.2 
L 232.898264 386.2 
L 232.898264 385.343215 
L 222.15625 385.343215 
z
" clip-path="url(#pb237642f69)" style="fill: #d3d3d3"/>
   </g>
   <g id="patch_103">
    <path d="M 232.898264 386.2 
L 243.640278 386.2 
L 243.640278 385.771607 
L 232.898264 385.771607 
z
" clip-path="url(#pb237642f69)" style="fill: #d3d3d3"/>
   </g>
   <g id="patch_104">
    <path d="M 243.640278 386.2 
L 254.382292 386.2 
L 254.382292 385.771607 
L 243.640278 385.771607 
z
" clip-path="url(#pb237642f69)" style="fill: #d3d3d3"/>
   </g>
   <g id="patch_105">
    <path d="M 254.382292 386.2 
L 265.124306 386.2 
L 265.124306 386.2 
L 254.382292 386.2 
z
" clip-path="url(#pb237642f69)" style="fill: #d3d3d3"/>
   </g>
   <g id="patch_106">
    <path d="M 265.124306 386.2 
L 275.866319 386.2 
L 275.866319 385.771607 
L 265.124306 385.771607 
z
" clip-path="url(#pb237642f69)" style="fill: #d3d3d3"/>
   </g>
   <g id="patch_107">
    <path d="M 275.866319 386.2 
L 286.608333 386.2 
L 286.608333 385.771607 
L 275.866319 385.771607 
z
" clip-path="url(#pb237642f69)" style="fill: #d3d3d3"/>
   </g>
   <g id="matplotlib.axis_7">
    <g id="xtick_21">
     <g id="line2d_27">
      <g>
       <use xlink:href="#m3864bf4e6e" x="34.171007" y="386.2" style="stroke: #000000; stroke-width: 0.8"/>
      </g>
     </g>
     <g id="text_25">
      <!-- 0 -->
      <g transform="translate(30.989757 400.798437)scale(0.1 -0.1)">
       <use xlink:href="#DejaVuSans-30"/>
      </g>
     </g>
    </g>
    <g id="xtick_22">
     <g id="line2d_28">
      <g>
       <use xlink:href="#m3864bf4e6e" x="87.881076" y="386.2" style="stroke: #000000; stroke-width: 0.8"/>
      </g>
     </g>
     <g id="text_26">
      <!-- 5 -->
      <g transform="translate(84.699826 400.798437)scale(0.1 -0.1)">
       <use xlink:href="#DejaVuSans-35"/>
      </g>
     </g>
    </g>
    <g id="xtick_23">
     <g id="line2d_29">
      <g>
       <use xlink:href="#m3864bf4e6e" x="141.591146" y="386.2" style="stroke: #000000; stroke-width: 0.8"/>
      </g>
     </g>
     <g id="text_27">
      <!-- 10 -->
      <g transform="translate(135.228646 400.798437)scale(0.1 -0.1)">
       <use xlink:href="#DejaVuSans-31"/>
       <use xlink:href="#DejaVuSans-30" x="63.623047"/>
      </g>
     </g>
    </g>
    <g id="xtick_24">
     <g id="line2d_30">
      <g>
       <use xlink:href="#m3864bf4e6e" x="195.301215" y="386.2" style="stroke: #000000; stroke-width: 0.8"/>
      </g>
     </g>
     <g id="text_28">
      <!-- 15 -->
      <g transform="translate(188.938715 400.798437)scale(0.1 -0.1)">
       <use xlink:href="#DejaVuSans-31"/>
       <use xlink:href="#DejaVuSans-35" x="63.623047"/>
      </g>
     </g>
    </g>
    <g id="xtick_25">
     <g id="line2d_31">
      <g>
       <use xlink:href="#m3864bf4e6e" x="249.011285" y="386.2" style="stroke: #000000; stroke-width: 0.8"/>
      </g>
     </g>
     <g id="text_29">
      <!-- 20 -->
      <g transform="translate(242.648785 400.798437)scale(0.1 -0.1)">
       <use xlink:href="#DejaVuSans-32"/>
       <use xlink:href="#DejaVuSans-30" x="63.623047"/>
      </g>
     </g>
    </g>
    <g id="text_30">
     <!-- # molecules -->
     <g transform="translate(114.076667 417.515938)scale(0.14 -0.14)">
      <defs>
       <path id="DejaVuSans-23" d="M 3272 2816 
L 2363 2816 
L 2100 1772 
L 3016 1772 
L 3272 2816 
z
M 2803 4594 
L 2478 3297 
L 3391 3297 
L 3719 4594 
L 4219 4594 
L 3897 3297 
L 4872 3297 
L 4872 2816 
L 3775 2816 
L 3519 1772 
L 4513 1772 
L 4513 1294 
L 3397 1294 
L 3072 0 
L 2572 0 
L 2894 1294 
L 1978 1294 
L 1656 0 
L 1153 0 
L 1478 1294 
L 494 1294 
L 494 1772 
L 1594 1772 
L 1856 2816 
L 850 2816 
L 850 3297 
L 1978 3297 
L 2297 4594 
L 2803 4594 
z
" transform="scale(0.015625)"/>
       <path id="DejaVuSans-20" transform="scale(0.015625)"/>
       <path id="DejaVuSans-6f" d="M 1959 3097 
Q 1497 3097 1228 2736 
Q 959 2375 959 1747 
Q 959 1119 1226 758 
Q 1494 397 1959 397 
Q 2419 397 2687 759 
Q 2956 1122 2956 1747 
Q 2956 2369 2687 2733 
Q 2419 3097 1959 3097 
z
M 1959 3584 
Q 2709 3584 3137 3096 
Q 3566 2609 3566 1747 
Q 3566 888 3137 398 
Q 2709 -91 1959 -91 
Q 1206 -91 779 398 
Q 353 888 353 1747 
Q 353 2609 779 3096 
Q 1206 3584 1959 3584 
z
" transform="scale(0.015625)"/>
       <path id="DejaVuSans-6c" d="M 603 4863 
L 1178 4863 
L 1178 0 
L 603 0 
L 603 4863 
z
" transform="scale(0.015625)"/>
       <path id="DejaVuSans-75" d="M 544 1381 
L 544 3500 
L 1119 3500 
L 1119 1403 
Q 1119 906 1312 657 
Q 1506 409 1894 409 
Q 2359 409 2629 706 
Q 2900 1003 2900 1516 
L 2900 3500 
L 3475 3500 
L 3475 0 
L 2900 0 
L 2900 538 
Q 2691 219 2414 64 
Q 2138 -91 1772 -91 
Q 1169 -91 856 284 
Q 544 659 544 1381 
z
M 1991 3584 
L 1991 3584 
z
" transform="scale(0.015625)"/>
      </defs>
      <use xlink:href="#DejaVuSans-23"/>
      <use xlink:href="#DejaVuSans-20" x="83.789062"/>
      <use xlink:href="#DejaVuSans-6d" x="115.576172"/>
      <use xlink:href="#DejaVuSans-6f" x="212.988281"/>
      <use xlink:href="#DejaVuSans-6c" x="274.169922"/>
      <use xlink:href="#DejaVuSans-65" x="301.953125"/>
      <use xlink:href="#DejaVuSans-63" x="363.476562"/>
      <use xlink:href="#DejaVuSans-75" x="418.457031"/>
      <use xlink:href="#DejaVuSans-6c" x="481.835938"/>
      <use xlink:href="#DejaVuSans-65" x="509.619141"/>
      <use xlink:href="#DejaVuSans-73" x="571.142578"/>
     </g>
    </g>
   </g>
   <g id="matplotlib.axis_8">
    <g id="text_31">
     <!-- Mature -->
     <g transform="translate(21.888438 328.337188)rotate(-90)scale(0.14 -0.14)">
      <defs>
       <path id="DejaVuSans-4d" d="M 628 4666 
L 1569 4666 
L 2759 1491 
L 3956 4666 
L 4897 4666 
L 4897 0 
L 4281 0 
L 4281 4097 
L 3078 897 
L 2444 897 
L 1241 4097 
L 1241 0 
L 628 0 
L 628 4666 
z
" transform="scale(0.015625)"/>
      </defs>
      <use xlink:href="#DejaVuSans-4d"/>
      <use xlink:href="#DejaVuSans-61" x="86.279297"/>
      <use xlink:href="#DejaVuSans-74" x="147.558594"/>
      <use xlink:href="#DejaVuSans-75" x="186.767578"/>
      <use xlink:href="#DejaVuSans-72" x="250.146484"/>
      <use xlink:href="#DejaVuSans-65" x="289.009766"/>
     </g>
    </g>
   </g>
   <g id="line2d_32">
    <path d="M 34.171007 333.354707 
L 44.913021 279.883722 
L 55.655035 247.525304 
L 66.397049 239.178553 
L 77.139062 248.857987 
L 87.881076 268.58955 
L 98.62309 291.751696 
L 109.365104 314.034232 
L 120.107118 333.217487 
L 130.849132 348.559392 
L 141.591146 360.18781 
L 152.33316 368.643604 
L 163.075174 374.590861 
L 173.817187 378.660069 
L 184.559201 381.380171 
L 195.301215 383.162385 
L 206.043229 384.309874 
L 216.785243 385.037397 
L 227.527257 385.492372 
L 238.269271 385.773422 
L 249.011285 385.945111 
L 259.753299 386.048937 
L 270.495312 386.111145 
L 281.237326 386.148102 
L 291.97934 386.169886 
L 302.721354 386.182633 
L 313.463368 386.190041 
L 324.205382 386.19432 
L 334.947396 386.196777 
L 345.68941 386.19818 
L 356.431424 386.198977 
L 367.173437 386.199427 
L 377.915451 386.199681 
" clip-path="url(#pb237642f69)" style="fill: none; stroke: #ff0000; stroke-width: 1.5; stroke-linecap: square"/>
   </g>
   <g id="line2d_33">
    <path d="M 34.171007 340.004753 
L 44.913021 275.953669 
L 55.655035 235.593956 
L 66.397049 229.247619 
L 77.139062 246.11316 
L 87.881076 272.395192 
L 98.62309 298.97059 
L 109.365104 321.693091 
L 120.107118 339.507807 
L 130.849132 352.813032 
L 141.591146 362.470187 
L 152.33316 369.372748 
L 163.075174 374.261001 
L 173.817187 377.714979 
L 184.559201 380.149529 
L 195.301215 381.872852 
L 206.043229 383.090957 
L 216.785243 383.95991 
L 227.527257 384.577039 
L 238.269271 385.022157 
L 249.011285 385.339421 
L 259.753299 385.571471 
L 270.495312 385.736881 
L 281.237326 385.860062 
L 291.97934 385.947337 
L 302.721354 386.013943 
L 313.463368 386.060399 
L 324.205382 386.097112 
L 334.947396 386.12195 
L 345.68941 386.142612 
L 356.431424 386.155864 
L 367.173437 386.167777 
L 377.915451 386.174754 
" clip-path="url(#pb237642f69)" style="fill: none; stroke: #00aeef; stroke-width: 1.5; stroke-linecap: square"/>
   </g>
   <g id="patch_108">
    <path d="M 28.8 386.2 
L 28.8 221.4 
" style="fill: none; stroke: #000000; stroke-width: 0.8; stroke-linejoin: miter; stroke-linecap: square"/>
   </g>
   <g id="patch_109">
    <path d="M 286.608333 386.2 
L 286.608333 221.4 
" style="fill: none; stroke: #000000; stroke-width: 0.8; stroke-linejoin: miter; stroke-linecap: square"/>
   </g>
   <g id="patch_110">
    <path d="M 28.8 386.2 
L 286.608333 386.2 
" style="fill: none; stroke: #000000; stroke-width: 0.8; stroke-linejoin: miter; stroke-linecap: square"/>
   </g>
   <g id="patch_111">
    <path d="M 28.8 221.4 
L 286.608333 221.4 
" style="fill: none; stroke: #000000; stroke-width: 0.8; stroke-linejoin: miter; stroke-linecap: square"/>
   </g>
  </g>
  <g id="axes_5">
   <g id="patch_112">
    <path d="M 312.095833 386.2 
L 569.904167 386.2 
L 569.904167 221.4 
L 312.095833 221.4 
z
" style="fill: #ffffff"/>
   </g>
   <g id="patch_113">
    <path d="M 312.095833 386.2 
L 321.303274 386.2 
L 321.303274 301.821161 
L 312.095833 301.821161 
z
" clip-path="url(#pd7f1703e40)" style="fill: #d3d3d3"/>
   </g>
   <g id="patch_114">
    <path d="M 321.303274 386.2 
L 330.510714 386.2 
L 330.510714 229.247619 
L 321.303274 229.247619 
z
" clip-path="url(#pd7f1703e40)" style="fill: #d3d3d3"/>
   </g>
   <g id="patch_115">
    <path d="M 330.510714 386.2 
L 339.718155 386.2 
L 339.718155 232.53762 
L 330.510714 232.53762 
z
" clip-path="url(#pd7f1703e40)" style="fill: #d3d3d3"/>
   </g>
   <g id="patch_116">
    <path d="M 339.718155 386.2 
L 348.925595 386.2 
L 348.925595 252.471153 
L 339.718155 252.471153 
z
" clip-path="url(#pd7f1703e40)" style="fill: #d3d3d3"/>
   </g>
   <g id="patch_117">
    <path d="M 348.925595 386.2 
L 358.133036 386.2 
L 358.133036 277.82351 
L 348.925595 277.82351 
z
" clip-path="url(#pd7f1703e40)" style="fill: #d3d3d3"/>
   </g>
   <g id="patch_118">
    <path d="M 358.133036 386.2 
L 367.340476 386.2 
L 367.340476 308.594692 
L 358.133036 308.594692 
z
" clip-path="url(#pd7f1703e40)" style="fill: #d3d3d3"/>
   </g>
   <g id="patch_119">
    <path d="M 367.340476 386.2 
L 376.547917 386.2 
L 376.547917 326.78646 
L 367.340476 326.78646 
z
" clip-path="url(#pd7f1703e40)" style="fill: #d3d3d3"/>
   </g>
   <g id="patch_120">
    <path d="M 376.547917 386.2 
L 385.755357 386.2 
L 385.755357 345.365287 
L 376.547917 345.365287 
z
" clip-path="url(#pd7f1703e40)" style="fill: #d3d3d3"/>
   </g>
   <g id="patch_121">
    <path d="M 385.755357 386.2 
L 394.962798 386.2 
L 394.962798 355.815877 
L 385.755357 355.815877 
z
" clip-path="url(#pd7f1703e40)" style="fill: #d3d3d3"/>
   </g>
   <g id="patch_122">
    <path d="M 394.962798 386.2 
L 404.170238 386.2 
L 404.170238 367.427644 
L 394.962798 367.427644 
z
" clip-path="url(#pd7f1703e40)" style="fill: #d3d3d3"/>
   </g>
   <g id="patch_123">
    <path d="M 404.170238 386.2 
L 413.377679 386.2 
L 413.377679 369.556468 
L 404.170238 369.556468 
z
" clip-path="url(#pd7f1703e40)" style="fill: #d3d3d3"/>
   </g>
   <g id="patch_124">
    <path d="M 413.377679 386.2 
L 422.585119 386.2 
L 422.585119 373.814115 
L 413.377679 373.814115 
z
" clip-path="url(#pd7f1703e40)" style="fill: #d3d3d3"/>
   </g>
   <g id="patch_125">
    <path d="M 422.585119 386.2 
L 431.79256 386.2 
L 431.79256 372.846468 
L 422.585119 372.846468 
z
" clip-path="url(#pd7f1703e40)" style="fill: #d3d3d3"/>
   </g>
   <g id="patch_126">
    <path d="M 431.79256 386.2 
L 441 386.2 
L 441 378.265293 
L 431.79256 378.265293 
z
" clip-path="url(#pd7f1703e40)" style="fill: #d3d3d3"/>
   </g>
   <g id="patch_127">
    <path d="M 441 386.2 
L 450.20744 386.2 
L 450.20744 380.200587 
L 441 380.200587 
z
" clip-path="url(#pd7f1703e40)" style="fill: #d3d3d3"/>
   </g>
   <g id="patch_128">
    <path d="M 450.20744 386.2 
L 459.414881 386.2 
L 459.414881 381.942352 
L 450.20744 381.942352 
z
" clip-path="url(#pd7f1703e40)" style="fill: #d3d3d3"/>
   </g>
   <g id="patch_129">
    <path d="M 459.414881 386.2 
L 468.622321 386.2 
L 468.622321 384.071176 
L 459.414881 384.071176 
z
" clip-path="url(#pd7f1703e40)" style="fill: #d3d3d3"/>
   </g>
   <g id="patch_130">
    <path d="M 468.622321 386.2 
L 477.829762 386.2 
L 477.829762 384.264706 
L 468.622321 384.264706 
z
" clip-path="url(#pd7f1703e40)" style="fill: #d3d3d3"/>
   </g>
   <g id="patch_131">
    <path d="M 477.829762 386.2 
L 487.037202 386.2 
L 487.037202 385.038823 
L 477.829762 385.038823 
z
" clip-path="url(#pd7f1703e40)" style="fill: #d3d3d3"/>
   </g>
   <g id="patch_132">
    <path d="M 487.037202 386.2 
L 496.244643 386.2 
L 496.244643 385.619412 
L 487.037202 385.619412 
z
" clip-path="url(#pd7f1703e40)" style="fill: #d3d3d3"/>
   </g>
   <g id="patch_133">
    <path d="M 496.244643 386.2 
L 505.452083 386.2 
L 505.452083 386.006471 
L 496.244643 386.006471 
z
" clip-path="url(#pd7f1703e40)" style="fill: #d3d3d3"/>
   </g>
   <g id="patch_134">
    <path d="M 505.452083 386.2 
L 514.659524 386.2 
L 514.659524 385.619412 
L 505.452083 385.619412 
z
" clip-path="url(#pd7f1703e40)" style="fill: #d3d3d3"/>
   </g>
   <g id="patch_135">
    <path d="M 514.659524 386.2 
L 523.866964 386.2 
L 523.866964 385.812941 
L 514.659524 385.812941 
z
" clip-path="url(#pd7f1703e40)" style="fill: #d3d3d3"/>
   </g>
   <g id="patch_136">
    <path d="M 523.866964 386.2 
L 533.074405 386.2 
L 533.074405 386.006471 
L 523.866964 386.006471 
z
" clip-path="url(#pd7f1703e40)" style="fill: #d3d3d3"/>
   </g>
   <g id="patch_137">
    <path d="M 533.074405 386.2 
L 542.281845 386.2 
L 542.281845 386.006471 
L 533.074405 386.006471 
z
" clip-path="url(#pd7f1703e40)" style="fill: #d3d3d3"/>
   </g>
   <g id="patch_138">
    <path d="M 542.281845 386.2 
L 551.489286 386.2 
L 551.489286 386.006471 
L 542.281845 386.006471 
z
" clip-path="url(#pd7f1703e40)" style="fill: #d3d3d3"/>
   </g>
   <g id="patch_139">
    <path d="M 551.489286 386.2 
L 560.696726 386.2 
L 560.696726 386.006471 
L 551.489286 386.006471 
z
" clip-path="url(#pd7f1703e40)" style="fill: #d3d3d3"/>
   </g>
   <g id="patch_140">
    <path d="M 560.696726 386.2 
L 569.904167 386.2 
L 569.904167 385.812941 
L 560.696726 385.812941 
z
" clip-path="url(#pd7f1703e40)" style="fill: #d3d3d3"/>
   </g>
   <g id="matplotlib.axis_9">
    <g id="xtick_26">
     <g id="line2d_34">
      <g>
       <use xlink:href="#m3864bf4e6e" x="316.699554" y="386.2" style="stroke: #000000; stroke-width: 0.8"/>
      </g>
     </g>
     <g id="text_32">
      <!-- 0 -->
      <g transform="translate(313.518304 400.798437)scale(0.1 -0.1)">
       <use xlink:href="#DejaVuSans-30"/>
      </g>
     </g>
    </g>
    <g id="xtick_27">
     <g id="line2d_35">
      <g>
       <use xlink:href="#m3864bf4e6e" x="362.736756" y="386.2" style="stroke: #000000; stroke-width: 0.8"/>
      </g>
     </g>
     <g id="text_33">
      <!-- 5 -->
      <g transform="translate(359.555506 400.798437)scale(0.1 -0.1)">
       <use xlink:href="#DejaVuSans-35"/>
      </g>
     </g>
    </g>
    <g id="xtick_28">
     <g id="line2d_36">
      <g>
       <use xlink:href="#m3864bf4e6e" x="408.773958" y="386.2" style="stroke: #000000; stroke-width: 0.8"/>
      </g>
     </g>
     <g id="text_34">
      <!-- 10 -->
      <g transform="translate(402.411458 400.798437)scale(0.1 -0.1)">
       <use xlink:href="#DejaVuSans-31"/>
       <use xlink:href="#DejaVuSans-30" x="63.623047"/>
      </g>
     </g>
    </g>
    <g id="xtick_29">
     <g id="line2d_37">
      <g>
       <use xlink:href="#m3864bf4e6e" x="454.811161" y="386.2" style="stroke: #000000; stroke-width: 0.8"/>
      </g>
     </g>
     <g id="text_35">
      <!-- 15 -->
      <g transform="translate(448.448661 400.798437)scale(0.1 -0.1)">
       <use xlink:href="#DejaVuSans-31"/>
       <use xlink:href="#DejaVuSans-35" x="63.623047"/>
      </g>
     </g>
    </g>
    <g id="xtick_30">
     <g id="line2d_38">
      <g>
       <use xlink:href="#m3864bf4e6e" x="500.848363" y="386.2" style="stroke: #000000; stroke-width: 0.8"/>
      </g>
     </g>
     <g id="text_36">
      <!-- 20 -->
      <g transform="translate(494.485863 400.798437)scale(0.1 -0.1)">
       <use xlink:href="#DejaVuSans-32"/>
       <use xlink:href="#DejaVuSans-30" x="63.623047"/>
      </g>
     </g>
    </g>
    <g id="xtick_31">
     <g id="line2d_39">
      <g>
       <use xlink:href="#m3864bf4e6e" x="546.885565" y="386.2" style="stroke: #000000; stroke-width: 0.8"/>
      </g>
     </g>
     <g id="text_37">
      <!-- 25 -->
      <g transform="translate(540.523065 400.798437)scale(0.1 -0.1)">
       <use xlink:href="#DejaVuSans-32"/>
       <use xlink:href="#DejaVuSans-35" x="63.623047"/>
      </g>
     </g>
    </g>
    <g id="text_38">
     <!-- # molecules -->
     <g transform="translate(397.3725 417.515938)scale(0.14 -0.14)">
      <use xlink:href="#DejaVuSans-23"/>
      <use xlink:href="#DejaVuSans-20" x="83.789062"/>
      <use xlink:href="#DejaVuSans-6d" x="115.576172"/>
      <use xlink:href="#DejaVuSans-6f" x="212.988281"/>
      <use xlink:href="#DejaVuSans-6c" x="274.169922"/>
      <use xlink:href="#DejaVuSans-65" x="301.953125"/>
      <use xlink:href="#DejaVuSans-63" x="363.476562"/>
      <use xlink:href="#DejaVuSans-75" x="418.457031"/>
      <use xlink:href="#DejaVuSans-6c" x="481.835938"/>
      <use xlink:href="#DejaVuSans-65" x="509.619141"/>
      <use xlink:href="#DejaVuSans-73" x="571.142578"/>
     </g>
    </g>
   </g>
   <g id="matplotlib.axis_10"/>
   <g id="line2d_40">
    <path d="M 316.699554 281.60886 
L 325.906994 248.445332 
L 335.114435 246.500943 
L 344.321875 260.374525 
L 353.529315 280.628276 
L 362.736756 301.79354 
L 371.944196 321.06405 
L 381.151637 337.29153 
L 390.359077 350.272109 
L 399.566518 360.279197 
L 408.773958 367.780297 
L 417.981399 373.279222 
L 427.188839 377.237792 
L 436.39628 380.044533 
L 445.60372 382.009025 
L 454.811161 383.368731 
L 464.018601 384.30068 
L 473.226042 384.933945 
L 482.433482 385.360945 
L 491.640923 385.646874 
L 500.848363 385.837141 
L 510.055804 385.96303 
L 519.263244 386.045889 
L 528.470685 386.100165 
L 537.678125 386.135559 
L 546.885565 386.158547 
L 556.093006 386.173419 
L 565.300446 386.183006 
L 574.507887 386.189166 
L 583.715327 386.193112 
L 592.922768 386.195631 
L 602.130208 386.197236 
L 611.337649 386.198255 
L 620.545089 386.198901 
L 629.75253 386.199309 
L 638.95997 386.199567 
L 648.167411 386.199729 
" clip-path="url(#pd7f1703e40)" style="fill: none; stroke: #ff0000; stroke-width: 1.5; stroke-linecap: square"/>
   </g>
   <g id="line2d_41">
    <path d="M 316.699554 295.927576 
L 325.906994 235.208674 
L 335.114435 229.639756 
L 344.321875 252.645846 
L 353.529315 281.949008 
L 362.736756 308.009266 
L 371.944196 328.515175 
L 381.151637 343.871926 
L 390.359077 355.151171 
L 399.566518 363.385268 
L 408.773958 369.395085 
L 417.981399 373.791054 
L 427.188839 377.016053 
L 436.39628 379.389102 
L 445.60372 381.14008 
L 454.811161 382.435195 
L 464.018601 383.395143 
L 473.226042 384.107947 
L 482.433482 384.638057 
L 491.640923 385.032826 
L 500.848363 385.327151 
L 510.055804 385.54681 
L 519.263244 385.710894 
L 528.470685 385.833559 
L 537.678125 385.925325 
L 546.885565 385.994019 
L 556.093006 386.045471 
L 565.300446 386.084028 
L 574.507887 386.112935 
L 583.715327 386.134616 
L 592.922768 386.150884 
L 602.130208 386.163095 
L 611.337649 386.172263 
L 620.545089 386.179149 
L 629.75253 386.184322 
L 638.95997 386.188209 
L 648.167411 386.191131 
" clip-path="url(#pd7f1703e40)" style="fill: none; stroke: #00aeef; stroke-width: 1.5; stroke-linecap: square"/>
   </g>
   <g id="patch_141">
    <path d="M 312.095833 386.2 
L 312.095833 221.4 
" style="fill: none; stroke: #000000; stroke-width: 0.8; stroke-linejoin: miter; stroke-linecap: square"/>
   </g>
   <g id="patch_142">
    <path d="M 569.904167 386.2 
L 569.904167 221.4 
" style="fill: none; stroke: #000000; stroke-width: 0.8; stroke-linejoin: miter; stroke-linecap: square"/>
   </g>
   <g id="patch_143">
    <path d="M 312.095833 386.2 
L 569.904167 386.2 
" style="fill: none; stroke: #000000; stroke-width: 0.8; stroke-linejoin: miter; stroke-linecap: square"/>
   </g>
   <g id="patch_144">
    <path d="M 312.095833 221.4 
L 569.904167 221.4 
" style="fill: none; stroke: #000000; stroke-width: 0.8; stroke-linejoin: miter; stroke-linecap: square"/>
   </g>
  </g>
  <g id="axes_6">
   <g id="patch_145">
    <path d="M 595.391667 386.2 
L 853.2 386.2 
L 853.2 221.4 
L 595.391667 221.4 
z
" style="fill: #ffffff"/>
   </g>
   <g id="patch_146">
    <path d="M 595.391667 386.2 
L 606.133681 386.2 
L 606.133681 338.459437 
L 595.391667 338.459437 
z
" clip-path="url(#p0f40118fc8)" style="fill: #d3d3d3"/>
   </g>
   <g id="patch_147">
    <path d="M 606.133681 386.2 
L 616.875694 386.2 
L 616.875694 287.12777 
L 606.133681 287.12777 
z
" clip-path="url(#p0f40118fc8)" style="fill: #d3d3d3"/>
   </g>
   <g id="patch_148">
    <path d="M 616.875694 386.2 
L 627.617708 386.2 
L 627.617708 244.457002 
L 616.875694 244.457002 
z
" clip-path="url(#p0f40118fc8)" style="fill: #d3d3d3"/>
   </g>
   <g id="patch_149">
    <path d="M 627.617708 386.2 
L 638.359722 386.2 
L 638.359722 229.247619 
L 627.617708 229.247619 
z
" clip-path="url(#p0f40118fc8)" style="fill: #d3d3d3"/>
   </g>
   <g id="patch_150">
    <path d="M 638.359722 386.2 
L 649.101736 386.2 
L 649.101736 237.908518 
L 638.359722 237.908518 
z
" clip-path="url(#p0f40118fc8)" style="fill: #d3d3d3"/>
   </g>
   <g id="patch_151">
    <path d="M 649.101736 386.2 
L 659.84375 386.2 
L 659.84375 270.86218 
L 649.101736 270.86218 
z
" clip-path="url(#p0f40118fc8)" style="fill: #d3d3d3"/>
   </g>
   <g id="patch_152">
    <path d="M 659.84375 386.2 
L 670.585764 386.2 
L 670.585764 292.831289 
L 659.84375 292.831289 
z
" clip-path="url(#p0f40118fc8)" style="fill: #d3d3d3"/>
   </g>
   <g id="patch_153">
    <path d="M 670.585764 386.2 
L 681.327778 386.2 
L 681.327778 318.813984 
L 670.585764 318.813984 
z
" clip-path="url(#p0f40118fc8)" style="fill: #d3d3d3"/>
   </g>
   <g id="patch_154">
    <path d="M 681.327778 386.2 
L 692.069792 386.2 
L 692.069792 335.502057 
L 681.327778 335.502057 
z
" clip-path="url(#p0f40118fc8)" style="fill: #d3d3d3"/>
   </g>
   <g id="patch_155">
    <path d="M 692.069792 386.2 
L 702.811806 386.2 
L 702.811806 350.077716 
L 692.069792 350.077716 
z
" clip-path="url(#p0f40118fc8)" style="fill: #d3d3d3"/>
   </g>
   <g id="patch_156">
    <path d="M 702.811806 386.2 
L 713.553819 386.2 
L 713.553819 367.188271 
L 702.811806 367.188271 
z
" clip-path="url(#p0f40118fc8)" style="fill: #d3d3d3"/>
   </g>
   <g id="patch_157">
    <path d="M 713.553819 386.2 
L 724.295833 386.2 
L 724.295833 368.666961 
L 713.553819 368.666961 
z
" clip-path="url(#p0f40118fc8)" style="fill: #d3d3d3"/>
   </g>
   <g id="patch_158">
    <path d="M 724.295833 386.2 
L 735.037847 386.2 
L 735.037847 377.116619 
L 724.295833 377.116619 
z
" clip-path="url(#p0f40118fc8)" style="fill: #d3d3d3"/>
   </g>
   <g id="patch_159">
    <path d="M 735.037847 386.2 
L 745.779861 386.2 
L 745.779861 378.80655 
L 735.037847 378.80655 
z
" clip-path="url(#p0f40118fc8)" style="fill: #d3d3d3"/>
   </g>
   <g id="patch_160">
    <path d="M 745.779861 386.2 
L 756.521875 386.2 
L 756.521875 381.76393 
L 745.779861 381.76393 
z
" clip-path="url(#p0f40118fc8)" style="fill: #d3d3d3"/>
   </g>
   <g id="patch_161">
    <path d="M 756.521875 386.2 
L 767.263889 386.2 
L 767.263889 384.932551 
L 756.521875 384.932551 
z
" clip-path="url(#p0f40118fc8)" style="fill: #d3d3d3"/>
   </g>
   <g id="patch_162">
    <path d="M 767.263889 386.2 
L 778.005903 386.2 
L 778.005903 385.355034 
L 767.263889 385.355034 
z
" clip-path="url(#p0f40118fc8)" style="fill: #d3d3d3"/>
   </g>
   <g id="patch_163">
    <path d="M 778.005903 386.2 
L 788.747917 386.2 
L 788.747917 385.566276 
L 778.005903 385.566276 
z
" clip-path="url(#p0f40118fc8)" style="fill: #d3d3d3"/>
   </g>
   <g id="patch_164">
    <path d="M 788.747917 386.2 
L 799.489931 386.2 
L 799.489931 385.566276 
L 788.747917 385.566276 
z
" clip-path="url(#p0f40118fc8)" style="fill: #d3d3d3"/>
   </g>
   <g id="patch_165">
    <path d="M 799.489931 386.2 
L 810.231944 386.2 
L 810.231944 386.2 
L 799.489931 386.2 
z
" clip-path="url(#p0f40118fc8)" style="fill: #d3d3d3"/>
   </g>
   <g id="patch_166">
    <path d="M 810.231944 386.2 
L 820.973958 386.2 
L 820.973958 386.2 
L 810.231944 386.2 
z
" clip-path="url(#p0f40118fc8)" style="fill: #d3d3d3"/>
   </g>
   <g id="patch_167">
    <path d="M 820.973958 386.2 
L 831.715972 386.2 
L 831.715972 385.777517 
L 820.973958 385.777517 
z
" clip-path="url(#p0f40118fc8)" style="fill: #d3d3d3"/>
   </g>
   <g id="patch_168">
    <path d="M 831.715972 386.2 
L 842.457986 386.2 
L 842.457986 386.2 
L 831.715972 386.2 
z
" clip-path="url(#p0f40118fc8)" style="fill: #d3d3d3"/>
   </g>
   <g id="patch_169">
    <path d="M 842.457986 386.2 
L 853.2 386.2 
L 853.2 385.988759 
L 842.457986 385.988759 
z
" clip-path="url(#p0f40118fc8)" style="fill: #d3d3d3"/>
   </g>
   <g id="matplotlib.axis_11">
    <g id="xtick_32">
     <g id="line2d_42">
      <g>
       <use xlink:href="#m3864bf4e6e" x="600.762674" y="386.2" style="stroke: #000000; stroke-width: 0.8"/>
      </g>
     </g>
     <g id="text_39">
      <!-- 0 -->
      <g transform="translate(597.581424 400.798437)scale(0.1 -0.1)">
       <use xlink:href="#DejaVuSans-30"/>
      </g>
     </g>
    </g>
    <g id="xtick_33">
     <g id="line2d_43">
      <g>
       <use xlink:href="#m3864bf4e6e" x="654.472743" y="386.2" style="stroke: #000000; stroke-width: 0.8"/>
      </g>
     </g>
     <g id="text_40">
      <!-- 5 -->
      <g transform="translate(651.291493 400.798437)scale(0.1 -0.1)">
       <use xlink:href="#DejaVuSans-35"/>
      </g>
     </g>
    </g>
    <g id="xtick_34">
     <g id="line2d_44">
      <g>
       <use xlink:href="#m3864bf4e6e" x="708.182812" y="386.2" style="stroke: #000000; stroke-width: 0.8"/>
      </g>
     </g>
     <g id="text_41">
      <!-- 10 -->
      <g transform="translate(701.820312 400.798437)scale(0.1 -0.1)">
       <use xlink:href="#DejaVuSans-31"/>
       <use xlink:href="#DejaVuSans-30" x="63.623047"/>
      </g>
     </g>
    </g>
    <g id="xtick_35">
     <g id="line2d_45">
      <g>
       <use xlink:href="#m3864bf4e6e" x="761.892882" y="386.2" style="stroke: #000000; stroke-width: 0.8"/>
      </g>
     </g>
     <g id="text_42">
      <!-- 15 -->
      <g transform="translate(755.530382 400.798437)scale(0.1 -0.1)">
       <use xlink:href="#DejaVuSans-31"/>
       <use xlink:href="#DejaVuSans-35" x="63.623047"/>
      </g>
     </g>
    </g>
    <g id="xtick_36">
     <g id="line2d_46">
      <g>
       <use xlink:href="#m3864bf4e6e" x="815.602951" y="386.2" style="stroke: #000000; stroke-width: 0.8"/>
      </g>
     </g>
     <g id="text_43">
      <!-- 20 -->
      <g transform="translate(809.240451 400.798437)scale(0.1 -0.1)">
       <use xlink:href="#DejaVuSans-32"/>
       <use xlink:href="#DejaVuSans-30" x="63.623047"/>
      </g>
     </g>
    </g>
    <g id="text_44">
     <!-- # molecules -->
     <g transform="translate(680.668333 417.515938)scale(0.14 -0.14)">
      <use xlink:href="#DejaVuSans-23"/>
      <use xlink:href="#DejaVuSans-20" x="83.789062"/>
      <use xlink:href="#DejaVuSans-6d" x="115.576172"/>
      <use xlink:href="#DejaVuSans-6f" x="212.988281"/>
      <use xlink:href="#DejaVuSans-6c" x="274.169922"/>
      <use xlink:href="#DejaVuSans-65" x="301.953125"/>
      <use xlink:href="#DejaVuSans-63" x="363.476562"/>
      <use xlink:href="#DejaVuSans-75" x="418.457031"/>
      <use xlink:href="#DejaVuSans-6c" x="481.835938"/>
      <use xlink:href="#DejaVuSans-65" x="509.619141"/>
      <use xlink:href="#DejaVuSans-73" x="571.142578"/>
     </g>
    </g>
   </g>
   <g id="matplotlib.axis_12"/>
   <g id="line2d_47">
    <path d="M 600.762674 338.888021 
L 611.504687 281.704013 
L 622.246701 244.332782 
L 632.988715 233.979759 
L 643.730729 244.627307 
L 654.472743 266.727211 
L 665.214757 292.273326 
L 675.956771 316.249489 
L 686.698785 336.290907 
L 697.440799 351.809555 
L 708.182812 363.178568 
L 718.924826 371.161199 
L 729.66684 376.579488 
L 740.408854 380.156436 
L 751.150868 382.463433 
L 761.892882 383.922087 
L 772.634896 384.828642 
L 783.37691 385.383657 
L 794.118924 385.718964 
L 804.860937 385.919152 
L 815.602951 386.037405 
L 826.344965 386.106591 
L 837.086979 386.146718 
L 847.828993 386.169805 
L 858.571007 386.182993 
L 865 386.187471 
" clip-path="url(#p0f40118fc8)" style="fill: none; stroke: #ff0000; stroke-width: 1.5; stroke-linecap: square"/>
   </g>
   <g id="line2d_48">
    <path d="M 600.762674 339.973616 
L 611.504687 281.628336 
L 622.246701 243.343852 
L 632.988715 233.027722 
L 643.730729 244.203611 
L 654.472743 266.822704 
L 665.214757 292.660708 
L 675.956771 316.701687 
L 686.698785 336.667781 
L 697.440799 352.058949 
L 708.182812 363.305415 
L 718.924826 371.195953 
L 729.66684 376.556992 
L 740.408854 380.105544 
L 751.150868 382.403959 
L 761.892882 383.86558 
L 772.634896 384.780543 
L 783.37691 385.345528 
L 794.118924 385.690247 
L 804.860937 385.898357 
L 815.602951 386.022813 
L 826.344965 386.096614 
L 837.086979 386.140044 
L 847.828993 386.165425 
L 858.571007 386.180164 
L 865 386.185258 
" clip-path="url(#p0f40118fc8)" style="fill: none; stroke: #00aeef; stroke-width: 1.5; stroke-linecap: square"/>
   </g>
   <g id="patch_170">
    <path d="M 595.391667 386.2 
L 595.391667 221.4 
" style="fill: none; stroke: #000000; stroke-width: 0.8; stroke-linejoin: miter; stroke-linecap: square"/>
   </g>
   <g id="patch_171">
    <path d="M 853.2 386.2 
L 853.2 221.4 
" style="fill: none; stroke: #000000; stroke-width: 0.8; stroke-linejoin: miter; stroke-linecap: square"/>
   </g>
   <g id="patch_172">
    <path d="M 595.391667 386.2 
L 853.2 386.2 
" style="fill: none; stroke: #000000; stroke-width: 0.8; stroke-linejoin: miter; stroke-linecap: square"/>
   </g>
   <g id="patch_173">
    <path d="M 595.391667 221.4 
L 853.2 221.4 
" style="fill: none; stroke: #000000; stroke-width: 0.8; stroke-linejoin: miter; stroke-linecap: square"/>
   </g>
  </g>
 </g>
 <defs>
  <clipPath id="p5bab51f98b">
   <rect x="28.8" y="28.8" width="257.808333" height="164.8"/>
  </clipPath>
  <clipPath id="p6707ad6268">
   <rect x="312.095833" y="28.8" width="257.808333" height="164.8"/>
  </clipPath>
  <clipPath id="pae6c883423">
   <rect x="595.391667" y="28.8" width="257.808333" height="164.8"/>
  </clipPath>
  <clipPath id="pb237642f69">
   <rect x="28.8" y="221.4" width="257.808333" height="164.8"/>
  </clipPath>
  <clipPath id="pd7f1703e40">
   <rect x="312.095833" y="221.4" width="257.808333" height="164.8"/>
  </clipPath>
  <clipPath id="p0f40118fc8">
   <rect x="595.391667" y="221.4" width="257.808333" height="164.8"/>
  </clipPath>
 </defs>
</svg>
